<?xml version="1.0" standalone="no"?>
<!DOCTYPE svg PUBLIC "-//W3C//DTD SVG 20010904//EN"
 "http://www.w3.org/TR/2001/REC-SVG-20010904/DTD/svg10.dtd">
<svg version="1.0" xmlns="http://www.w3.org/2000/svg"
 width="335.000000pt" height="388.000000pt" viewBox="0 0 335.000000 388.000000"
 preserveAspectRatio="xMidYMid meet">

<g transform="translate(0.000000,388.000000) scale(0.100000,-0.100000)"
fill="#000000" stroke="none">
<path d="M1706 3786 c-30 -28 -36 -40 -36 -76 0 -58 31 -108 96 -153 89 -62
83 -116 -21 -198 -64 -50 -91 -93 -82 -129 6 -23 -1 -24 -54 -9 -29 9 -64 9
-144 0 -58 -7 -114 -15 -123 -18 -9 -4 0 10 22 30 36 35 38 40 33 83 -6 53
-36 90 -82 99 -29 5 -29 5 -5 -5 41 -18 60 -41 60 -75 0 -35 -33 -90 -67 -112
-20 -13 -21 -13 -16 7 3 12 -1 28 -10 38 -11 12 -15 36 -13 87 2 68 1 71 -37
117 -59 71 -97 82 -254 74 -125 -7 -129 -7 -176 18 -50 27 -91 33 -102 16 -4
-6 5 -7 24 -4 22 5 38 0 63 -17 30 -22 44 -24 155 -26 128 -2 159 -10 199 -55
27 -29 37 -62 29 -89 -5 -16 -9 -18 -21 -8 -8 6 -12 14 -10 17 3 2 -11 18 -31
33 -32 26 -43 29 -102 27 l-66 -2 65 -3 c59 -4 68 -7 103 -41 23 -23 37 -44
35 -56 -5 -33 -80 -81 -195 -125 -217 -84 -309 -185 -274 -302 22 -73 87 -130
164 -144 20 -4 37 -11 37 -15 0 -15 -54 -30 -110 -30 -66 0 -92 8 -133 42 -28
23 -28 24 -15 71 11 44 11 51 -10 90 -12 23 -22 49 -22 58 0 8 32 53 71 99 78
93 99 127 99 164 0 30 -36 74 -81 100 -32 18 -32 17 7 -17 55 -48 71 -86 52
-125 -20 -39 -152 -194 -156 -182 -2 5 7 36 19 70 12 33 19 63 15 67 -3 3 -6
1 -6 -6 0 -18 -30 -85 -35 -79 -3 2 7 44 21 92 21 70 24 94 16 124 -9 36 -9
35 -10 -23 0 -38 -8 -80 -21 -114 -15 -38 -21 -72 -20 -110 2 -31 -3 -74 -10
-95 -17 -49 -9 -138 16 -174 9 -15 26 -44 36 -64 25 -49 61 -71 119 -72 26 -1
48 -4 48 -7 0 -9 -42 -45 -80 -68 -19 -11 -51 -21 -70 -22 -29 0 -31 -2 -15
-9 l20 -9 -20 0 c-11 0 -27 4 -35 9 -12 8 -12 10 -1 10 8 0 -1 10 -20 23 -50
33 -71 80 -65 146 4 40 0 62 -14 88 -10 19 -21 34 -24 34 -3 -1 -10 -1 -14 -1
-18 0 -52 79 -52 121 0 40 5 48 59 99 80 76 85 87 86 210 1 58 4 132 8 165 6
55 5 54 -8 -15 -7 -41 -14 -110 -14 -152 -1 -101 -20 -145 -83 -198 -106 -90
-114 -155 -31 -255 22 -25 24 -35 18 -75 -14 -95 -14 -200 1 -235 8 -19 14
-50 14 -70 0 -45 23 -100 47 -113 10 -6 38 -13 63 -17 62 -9 120 15 170 72
l39 45 6 -29 c4 -15 13 -47 20 -70 l14 -42 -37 -7 c-55 -9 -61 -12 -22 -13 42
-1 60 -16 61 -50 0 -15 3 -20 6 -13 10 26 21 0 16 -41 -4 -33 -2 -39 7 -27 9
12 10 10 5 -10 -6 -24 -15 -33 -92 -96 -39 -31 -42 -63 -13 -112 27 -43 54
-52 188 -63 125 -9 186 -32 209 -79 12 -25 12 -25 -54 -37 -37 -7 -94 -26
-128 -42 -158 -77 -263 -90 -353 -45 -118 59 -181 203 -147 337 27 105 93 185
209 249 28 15 47 28 42 28 -25 0 -132 -69 -172 -112 -130 -140 -134 -334 -9
-462 21 -21 54 -45 74 -53 44 -19 51 -28 51 -73 0 -39 38 -128 76 -177 44 -58
7 -76 -166 -77 -109 -1 -130 -4 -167 -24 -49 -26 -73 -65 -73 -119 0 -44 6
-55 38 -72 19 -10 21 -17 16 -49 -4 -23 1 -60 11 -96 19 -66 15 -140 -11 -205
-28 -70 -11 -77 24 -10 30 60 32 71 32 164 0 108 10 143 29 107 6 -11 11 -33
12 -49 0 -27 1 -27 11 -6 9 18 6 30 -15 66 l-26 44 21 34 c26 43 47 58 78 59
19 0 22 2 10 10 -25 16 34 30 125 30 120 0 118 -18 -2 -23 -91 -3 -90 -3 18
-3 l115 1 -22 -73 c-13 -41 -29 -81 -36 -89 -17 -21 -71 -43 -105 -43 -49 0
-126 -43 -157 -88 -25 -36 -28 -48 -23 -89 18 -135 34 -174 78 -188 27 -9 24
-22 -15 -66 -48 -52 -61 -103 -38 -149 13 -27 26 -37 55 -44 41 -11 44 -19 21
-65 -23 -45 -14 -125 16 -154 l22 -22 -21 40 c-26 50 -27 101 -1 143 22 36 29
38 69 18 45 -24 89 -82 106 -141 17 -57 30 -76 19 -27 -20 90 -57 148 -115
178 -35 18 -36 24 -5 72 50 77 42 149 -19 191 -31 21 -35 28 -30 52 10 46 -3
69 -52 91 -24 11 -47 26 -50 34 -9 23 44 82 97 109 27 14 97 33 160 45 164 29
196 47 311 176 36 41 74 60 85 43 3 -5 -5 -9 -18 -9 -19 0 -20 -2 -8 -11 12
-9 11 -10 -7 -6 -15 3 -23 0 -23 -8 0 -7 -6 -15 -14 -18 -19 -8 -58 -91 -50
-111 9 -23 16 -20 39 17 29 46 52 46 71 2 9 -22 13 -49 9 -66 -4 -16 -3 -39 1
-51 l8 -23 7 25 c5 18 7 10 8 -31 1 -76 -14 -115 -47 -124 -103 -26 -153 -127
-82 -165 11 -6 20 -18 20 -28 0 -21 36 -45 53 -35 7 4 7 0 -2 -10 -7 -9 -21
-17 -30 -17 -10 0 -12 3 -5 8 7 4 -29 8 -78 9 -88 2 -128 -7 -128 -29 0 -7 5
-6 15 2 10 8 38 11 78 10 34 -2 81 -4 105 -4 23 -1 42 -4 42 -8 0 -14 -45 -38
-75 -39 -18 -1 -23 -3 -12 -6 27 -7 65 5 87 27 22 22 27 69 8 71 -7 1 -19 2
-27 3 -8 0 -17 8 -19 16 -5 13 -3 13 11 1 10 -7 17 -9 17 -3 0 6 -16 20 -36
32 -38 24 -40 39 -2 20 38 -20 88 -72 88 -93 0 -49 -43 -81 -125 -92 -28 -3
-61 -8 -75 -11 -19 -4 -22 -2 -10 6 8 5 26 10 40 11 23 2 23 2 3 6 -42 8 -110
-32 -143 -83 -31 -50 -37 -78 -20 -104 7 -11 10 -5 10 23 0 84 43 118 171 138
90 13 132 32 149 65 11 20 19 24 40 19 22 -5 35 5 99 75 40 45 75 79 78 76 11
-11 -25 -57 -107 -136 -68 -66 -91 -95 -101 -128 -16 -55 0 -109 47 -161 27
-30 34 -48 36 -82 l1 -44 6 43 6 44 30 -23 c28 -21 28 -21 -4 14 -19 20 -41
37 -48 37 -7 0 -24 17 -38 37 -19 28 -25 51 -25 89 0 67 31 113 130 193 41 33
88 78 104 101 25 34 46 50 46 36 0 -28 -31 -72 -71 -101 -64 -46 -90 -88 -87
-140 1 -24 -5 -53 -15 -73 -10 -18 -20 -56 -23 -85 l-5 -52 19 68 c24 89 36
100 67 64 14 -15 30 -45 36 -67 10 -33 9 -47 -5 -82 -15 -40 -15 -42 1 -25 29
29 24 114 -9 165 -16 23 -28 46 -28 51 0 5 16 19 35 31 40 24 60 57 70 114 6
31 14 41 42 53 90 37 183 164 183 249 0 29 8 51 30 81 35 48 75 148 84 215 5
33 12 48 22 48 10 0 12 -5 7 -12 -11 -18 -13 -38 -4 -38 14 0 41 36 34 44 -5
5 3 6 17 4 16 -2 24 1 22 10 -1 6 3 12 9 12 6 0 9 6 7 13 -3 6 3 21 13 31 11
11 19 15 19 9 0 -5 -3 -12 -6 -16 -8 -8 -18 -101 -16 -154 3 -92 73 -193 157
-229 64 -27 198 -30 267 -7 32 11 58 18 58 17 0 -10 -162 -130 -204 -151 -90
-46 -175 -151 -191 -234 -14 -76 36 -178 101 -205 36 -15 131 -19 152 -5 7 4
-11 6 -42 3 -114 -9 -201 68 -200 177 0 105 66 184 230 276 49 28 92 51 96 53
3 2 -2 -18 -11 -45 -10 -26 -21 -66 -24 -88 -7 -43 1 -25 22 50 6 22 17 49 25
60 13 18 14 14 9 -41 -7 -77 14 -146 63 -203 44 -51 92 -76 191 -102 85 -21
96 -23 89 -10 -3 4 -27 11 -53 14 -117 14 -216 77 -254 161 -24 54 -24 93 3
163 30 80 107 154 227 218 108 57 182 120 214 179 l22 41 3 -60 c4 -68 -12
-137 -37 -159 -9 -9 -57 -35 -106 -60 -116 -56 -140 -82 -140 -146 0 -42 5
-54 34 -84 18 -19 74 -56 123 -82 62 -33 97 -59 114 -83 26 -38 31 -89 13
-123 -8 -15 -8 -19 1 -13 22 13 31 55 20 95 -13 48 -72 108 -171 175 -110 73
-119 83 -119 124 1 56 38 90 147 134 l63 25 -25 -36 c-46 -68 -30 -126 58
-215 37 -36 47 -55 58 -103 15 -71 32 -107 23 -49 -14 90 -26 117 -79 175 -58
63 -71 94 -61 136 8 31 74 130 106 159 39 35 63 95 68 171 4 62 1 79 -22 130
-44 96 -119 157 -231 190 l-60 17 38 13 c50 17 114 69 187 149 28 31 60 101
60 131 0 15 5 41 11 58 8 23 7 57 -5 136 -33 226 -33 226 -128 345 -45 55 -47
61 -31 73 19 14 66 9 109 -10 20 -9 24 -19 24 -52 0 -33 7 -47 36 -77 l36 -37
-16 -48 c-28 -82 -23 -105 35 -164 l51 -52 -4 -58 c-3 -44 -11 -68 -34 -99
-66 -92 -74 -104 -74 -115 1 -6 8 3 17 19 9 17 33 49 54 73 40 46 60 109 51
159 -2 15 -27 51 -53 80 -30 32 -49 61 -49 76 0 30 29 117 39 117 19 0 40 -39
49 -90 6 -36 10 -45 11 -25 1 44 -16 100 -39 120 -13 11 -20 31 -20 53 0 21
-11 50 -30 79 -16 24 -30 48 -30 53 0 5 -8 9 -17 9 -32 0 -127 31 -135 43 -16
25 -3 43 31 46 42 4 78 -14 96 -48 10 -18 14 -20 15 -8 0 35 -55 71 -111 70
-33 -1 -39 3 -48 30 -17 49 -14 58 35 103 42 39 45 46 39 77 -6 31 -2 40 34
82 45 52 49 73 26 151 -15 50 -14 35 1 -56 5 -30 2 -41 -23 -70 -42 -48 -53
-72 -53 -115 0 -31 -7 -43 -40 -71 -37 -32 -40 -39 -40 -84 0 -48 -1 -50 -22
-44 -38 12 -38 18 -3 75 33 53 65 150 65 198 0 13 11 38 24 55 34 45 41 79 22
115 l-16 31 56 53 c31 29 62 57 70 61 39 22 56 107 29 143 -8 10 -15 33 -15
51 0 22 -10 44 -31 68 -29 32 -31 40 -26 83 4 26 9 58 12 72 5 21 5 22 -5 8
-6 -10 -14 -40 -17 -68 -3 -28 -11 -50 -18 -50 -6 0 -24 13 -39 29 -25 26 -28
35 -24 76 3 25 17 63 32 86 26 39 49 89 41 89 -2 0 -23 -34 -46 -76 -58 -105
-58 -144 -2 -193 29 -26 43 -48 48 -75 4 -21 18 -48 32 -60 20 -19 22 -25 10
-34 -10 -9 -21 -2 -49 32 -39 46 -80 66 -216 106 -83 24 -112 47 -112 90 0 37
41 71 134 110 80 34 104 53 123 99 20 48 10 49 -12 1 -20 -45 -51 -66 -144
-101 -81 -30 -121 -66 -121 -108 0 -44 35 -74 133 -111 45 -17 101 -42 124
-56 41 -24 83 -71 83 -93 0 -7 -21 -21 -47 -32 -27 -11 -58 -30 -70 -41 -30
-28 -32 -2 -3 35 32 41 23 42 -20 3 -22 -20 -44 -36 -49 -36 -5 0 -14 -13 -21
-29 -12 -31 -50 -71 -50 -54 0 5 11 25 25 44 l26 34 -53 3 c-81 5 -84 22 -4
22 58 0 67 2 62 16 -3 9 -6 24 -6 34 0 29 -43 73 -102 105 l-53 28 32 -30 c40
-38 51 -77 29 -102 -9 -10 -13 -21 -10 -24 8 -8 -40 -27 -64 -26 -14 0 -13 2
3 9 11 5 14 9 8 9 -16 1 -16 28 -1 86 15 55 3 69 -50 60 -19 -4 -80 -3 -136 1
-101 6 -103 7 -113 35 -8 19 -24 35 -48 45 -29 12 -35 19 -29 32 4 9 9 31 12
49 5 41 -34 81 -90 89 -44 7 -46 15 -17 55 11 16 22 46 24 66 5 38 5 38 -4 5
-11 -41 -57 -112 -74 -112 -17 0 -17 -38 0 -44 7 -3 13 2 13 11 0 24 84 12
116 -18 29 -27 30 -53 4 -97 -29 -47 -62 -42 -65 11 -2 38 -39 92 -56 81 -11
-7 -51 15 -45 25 3 4 -23 13 -57 20 -79 16 -123 43 -147 92 -32 62 -27 105 17
145 20 19 34 34 31 34 -4 0 -23 -15 -42 -34z m191 -335 c17 -26 -15 -91 -66
-131 -22 -18 -43 -41 -46 -52 -4 -10 -13 -18 -20 -18 -10 0 -15 -17 -17 -57
l-3 -58 -18 26 c-28 41 -13 74 71 156 74 72 75 73 70 117 -6 46 6 54 29 17z
m76 -83 c-10 -17 -29 -38 -43 -47 -23 -15 -22 -13 7 24 17 22 34 54 39 70 7
27 8 28 12 7 2 -12 -5 -37 -15 -54z m51 -27 c-5 -14 -8 -44 -9 -67 0 -34 -6
-45 -38 -73 -41 -36 -59 -33 -71 14 -8 33 5 62 53 117 46 52 79 57 65 9z m86
2 c28 -36 24 -87 -8 -91 -31 -5 -50 13 -58 54 -11 62 29 84 66 37z m-257 -46
c-16 -17 -19 -34 -18 -78 2 -52 20 -107 32 -96 2 3 -1 15 -7 28 -15 26 -7 82
15 116 23 34 30 22 11 -16 -12 -22 -15 -49 -12 -96 3 -50 1 -65 -10 -65 -30 0
-76 116 -52 131 6 4 10 20 10 35 0 27 35 80 46 69 3 -3 -4 -15 -15 -28z m1029
16 c24 -27 32 -63 15 -63 -19 0 -33 18 -41 53 -7 31 4 35 26 10z m-832 -67 c0
-6 -7 -2 -15 8 -8 11 -15 25 -15 30 0 6 7 2 15 -8 8 -11 15 -25 15 -30z m308
34 c59 0 73 -20 15 -21 l-38 -1 33 -9 c32 -10 45 -39 17 -39 -9 0 -25 -16 -36
-35 -12 -19 -25 -35 -30 -35 -13 0 -11 14 4 30 6 8 2 6 -10 -4 -12 -10 -21
-23 -20 -29 1 -7 -20 -19 -48 -28 -56 -18 -133 -33 -100 -20 11 5 31 14 45 20
24 11 24 11 -5 5 -16 -3 -54 -10 -84 -15 -30 -5 -61 -15 -69 -23 -23 -23 -7
-46 30 -46 25 0 29 -3 18 -10 -8 -5 -12 -10 -8 -10 3 0 13 -3 22 -6 11 -4 16
-1 16 10 0 9 8 16 18 16 14 0 15 -2 2 -10 -8 -5 -10 -10 -5 -10 6 0 17 4 25
10 9 5 17 5 21 -1 3 -6 17 -4 35 5 15 9 48 18 71 22 24 3 43 10 43 14 0 14
-41 19 -71 8 -16 -5 -39 -8 -52 -4 -12 3 -29 1 -37 -4 -12 -7 -8 -10 15 -11
25 -1 26 -3 7 -6 -13 -3 -37 0 -54 6 -21 8 -36 8 -50 0 -11 -6 -26 -8 -35 -5
-13 5 -13 9 -3 22 10 11 15 12 20 3 6 -8 9 -8 14 0 4 6 16 11 27 11 13 0 18
-4 13 -12 -5 -8 -2 -9 12 -4 10 4 50 14 88 22 42 9 89 28 123 50 32 20 64 34
74 31 12 -3 19 2 23 17 2 13 4 10 3 -8 -2 -24 -7 -29 -30 -32 -35 -3 -133 -64
-100 -61 12 0 19 5 16 10 -3 5 3 6 14 3 11 -3 28 1 39 9 19 15 19 15 -1 9 -14
-5 -17 -4 -10 3 6 6 21 14 34 18 20 6 23 4 18 -9 -6 -14 -2 -16 27 -11 41 8
54 -8 24 -29 -29 -21 -55 -20 -67 2 -10 16 -10 16 -11 0 0 -13 -9 -18 -32 -19
-18 -1 3 -7 47 -13 158 -25 250 -75 302 -163 54 -91 32 -256 -47 -361 -36 -48
-70 -66 -70 -38 0 8 5 18 12 22 7 5 8 3 3 -6 -5 -8 -4 -11 3 -6 7 4 8 17 2 36
-8 29 3 53 13 28 3 -8 6 -5 6 5 1 14 -5 18 -26 15 -14 -2 -29 -9 -31 -17 -3
-8 0 -11 7 -7 6 4 11 5 11 2 0 -2 3 -13 7 -23 6 -17 5 -17 -15 1 -12 11 -22
15 -22 11 0 -5 -2 -6 -5 -4 -2 3 2 25 9 50 15 50 8 128 -17 176 -34 64 -120
123 -180 123 -18 0 -41 6 -51 13 -29 21 105 5 140 -17 92 -58 128 -121 129
-222 0 -40 3 -67 8 -60 5 8 10 7 17 -4 7 -12 10 -8 10 15 0 23 -3 27 -10 15
-8 -12 -10 -9 -10 13 0 15 5 27 10 27 6 0 10 7 10 15 0 8 6 15 13 15 8 0 9 2
1 8 -8 5 -8 20 1 55 11 45 3 68 -10 27 -8 -25 -29 -27 -22 -1 6 26 -10 51 -34
51 -15 0 -19 5 -15 18 5 13 -1 23 -19 32 -14 8 -28 24 -31 37 -4 16 -13 23
-31 23 -14 0 -22 -4 -18 -10 4 -6 10 -8 15 -5 5 3 14 -3 19 -14 18 -33 12 -34
-26 -2 -21 17 -43 31 -51 31 -14 0 -12 31 3 42 6 4 2 8 -7 8 -12 0 -18 -8 -18
-22 0 -21 0 -21 -26 3 -21 19 -36 24 -82 24 -33 -1 -71 -8 -90 -18 -29 -14
-33 -14 -28 -1 4 12 2 12 -14 4 -25 -13 -96 -13 -121 1 -52 27 -38 111 21 124
28 6 44 35 19 35 -5 0 -7 -4 -4 -10 3 -5 -6 -12 -20 -16 -50 -12 -85 -90 -54
-121 18 -18 -7 -51 -64 -80 -69 -37 -71 -38 -63 -24 9 14 -4 14 -38 1 -30 -11
-44 4 -19 20 17 11 17 11 -1 6 -13 -5 -17 -2 -12 9 3 9 0 15 -10 15 -11 0 -14
6 -10 16 3 9 6 21 6 28 0 7 18 20 39 30 23 10 66 46 102 87 86 97 104 108 201
120 46 5 88 15 93 20 7 7 5 9 -5 5 -38 -12 -70 -16 -70 -8 0 15 65 30 115 26
28 -2 74 -4 103 -4z m-1162 -25 c-6 -34 -13 -43 -46 -60 -37 -19 -35 -1 5 48
36 42 47 46 41 12z m84 -14 c0 -25 -35 -54 -109 -91 -34 -17 -61 -34 -58 -37
3 -3 -7 -28 -23 -57 -16 -28 -32 -71 -36 -96 -6 -35 -9 -40 -15 -25 -4 11 -8
37 -8 59 -1 32 6 45 38 77 40 41 42 50 3 23 -50 -34 -69 -135 -36 -182 27 -39
4 -39 -32 0 -24 27 -34 47 -34 70 0 55 32 92 154 173 32 22 75 59 94 82 27 33
39 40 49 31 7 -6 13 -18 13 -27z m1170 1 c0 -5 -8 -17 -19 -26 -18 -16 -18
-16 -18 9 0 18 5 25 18 25 11 0 19 -4 19 -8z m-817 -38 c45 -15 66 -41 51 -65
-5 -8 -9 -8 -14 1 -9 14 -40 7 -40 -9 0 -6 7 -8 15 -5 9 4 15 1 15 -7 0 -8 3
-24 6 -36 4 -14 2 -23 -5 -23 -5 0 -8 7 -4 16 5 14 3 15 -15 5 -27 -14 -42
-37 -19 -28 22 8 22 -16 0 -34 -9 -8 -14 -9 -10 -3 4 7 -2 9 -19 6 -19 -3 -22
-7 -13 -18 12 -15 8 -17 -31 -15 -21 1 -22 0 -6 -7 17 -7 15 -10 -15 -21 -46
-18 -69 -26 -103 -40 -49 -20 -41 -4 12 23 92 46 142 103 142 161 0 28 -63 95
-90 95 -13 0 -13 1 0 10 23 15 91 12 143 -6z m1307 -50 c0 -30 -32 -84 -51
-84 -17 0 -10 112 8 132 16 18 18 18 30 2 7 -10 13 -32 13 -50z m-1456 36 c35
-13 66 -46 66 -69 0 -11 -5 -32 -11 -48 -10 -26 -12 -27 -19 -8 -6 14 -9 15
-9 5 -1 -9 4 -21 10 -27 6 -6 8 -16 4 -23 -4 -7 -15 -3 -32 15 -50 50 -139 24
-162 -48 -14 -43 0 -102 34 -137 l26 -28 -29 -21 c-16 -11 -33 -17 -37 -13 -5
4 -5 1 -1 -5 9 -16 -50 -18 -59 -3 -9 14 -45 3 -72 -23 -13 -11 -23 -16 -23
-10 0 6 7 16 15 23 8 7 14 22 14 34 -1 17 -2 17 -6 4 -2 -10 -8 -18 -13 -18
-15 0 -40 31 -40 48 0 10 -9 34 -20 55 -24 45 -27 76 -5 57 17 -14 35 -5 35
17 0 13 -3 13 -15 3 -12 -10 -15 -10 -15 4 0 9 5 16 10 16 6 0 10 9 10 20 0
16 5 19 30 14 32 -7 60 8 60 32 0 8 -7 14 -16 14 -13 0 -14 -3 -5 -14 9 -10 8
-15 -3 -19 -21 -8 -28 34 -9 55 9 10 20 18 25 18 5 0 19 10 31 21 l22 21 -25
-12 c-58 -30 -91 -62 -85 -84 5 -15 4 -17 -3 -7 -8 11 -15 5 -35 -26 -64 -101
-51 -211 39 -335 20 -27 33 -52 29 -56 -11 -11 -53 47 -92 128 -28 59 -36 87
-36 131 1 129 102 250 246 294 50 16 136 19 171 5z m911 0 c-3 -5 -10 -10 -16
-10 -5 0 -9 5 -9 10 0 6 7 10 16 10 8 0 12 -4 9 -10z m-665 -50 c0 -5 7 -16
16 -24 14 -15 14 -16 -3 -16 -24 0 -43 19 -43 42 0 11 5 15 15 12 8 -4 15 -10
15 -14z m1114 -25 c9 -47 -5 -69 -59 -89 -57 -22 -75 -16 -75 26 0 44 8 53 60
77 62 27 67 26 74 -14z m-1916 -2 c-46 -12 -80 -121 -54 -172 10 -19 12 -31 6
-31 -6 0 -18 16 -26 36 -14 34 -14 50 2 101 3 10 -2 5 -11 -11 -10 -16 -15
-42 -13 -62 3 -26 1 -31 -9 -22 -17 14 -16 52 2 89 17 31 80 78 105 77 11 0
10 -2 -2 -5z m794 -58 c7 -7 9 -3 5 13 -4 19 -2 21 20 17 34 -6 38 -11 25 -37
-10 -22 -11 -22 -12 7 -1 17 -4 23 -7 13 -6 -23 -34 -31 -51 -14 -10 9 -12 21
-7 33 8 17 8 17 13 -2 2 -11 9 -24 14 -30z m-964 18 c-21 -25 -40 -63 -49 -98
l-7 -30 -1 32 c-1 40 15 84 36 101 25 18 38 15 21 -5z m1924 -71 c-34 -5 -38
3 -16 43 l19 35 10 -37 c10 -36 10 -38 -13 -41z m-1742 37 c-17 -31 -6 -96 21
-125 18 -19 19 -24 7 -24 -41 0 -72 112 -43 156 20 31 32 26 15 -7z m516 -11
c-9 -5 -24 -7 -34 -5 -14 3 -12 6 8 14 29 12 50 5 26 -9z m248 0 c12 -17 13
-24 4 -29 -9 -6 -8 -10 5 -15 26 -10 48 2 40 23 -5 14 -3 15 6 7 15 -13 -1
-54 -21 -54 -22 0 -78 42 -78 59 0 36 22 41 44 9z m1126 -17 c0 -14 -41 -41
-62 -41 -27 0 -22 17 10 34 31 18 52 20 52 7z m-1933 -49 c2 -26 -1 -33 -7
-22 -11 17 -13 77 -3 66 4 -4 9 -24 10 -44z m473 28 c-14 -10 -27 -17 -29 -15
-8 8 22 35 38 35 12 0 10 -5 -9 -20z m130 10 c0 -5 -11 -10 -25 -10 -14 0 -25
5 -25 10 0 6 11 10 25 10 14 0 25 -4 25 -10z m160 -15 c0 -7 -5 -15 -11 -17
-8 -3 -6 -10 5 -21 9 -9 23 -14 30 -11 8 3 17 1 21 -5 13 -22 -24 -22 -54 0
-38 28 -47 50 -25 66 19 14 34 9 34 -12z m695 4 c11 -17 0 -20 -21 -4 -17 13
-17 14 -2 15 9 0 20 -5 23 -11z m-1999 -17 c-4 -10 1 -38 9 -62 19 -53 11 -67
-10 -17 -16 38 -20 79 -8 90 11 12 15 8 9 -11z m1099 9 c17 -7 15 -10 -18 -20
-36 -12 -77 -8 -77 9 0 17 61 24 95 11z m-856 -68 c7 -23 6 -44 0 -61 l-11
-27 -13 25 c-8 14 -14 47 -15 74 0 42 2 47 15 36 8 -7 19 -28 24 -47z m1016
37 c22 -24 13 -39 -12 -19 -15 12 -16 12 -10 -3 9 -24 -10 -23 -22 0 -7 13 -6
23 1 30 16 16 22 15 43 -8z m65 10 c0 -5 -5 -10 -11 -10 -5 0 -7 5 -4 10 3 6
8 10 11 10 2 0 4 -4 4 -10z m541 -16 c98 -31 179 -140 186 -253 3 -41 2 -52
-6 -41 -6 8 -11 27 -11 42 0 18 -8 31 -22 39 -14 8 -18 14 -10 17 6 2 12 8 12
14 0 6 -6 6 -15 -2 -11 -9 -20 -8 -44 9 -16 12 -44 24 -63 27 -44 9 -70 23
-63 35 4 5 -2 10 -12 10 -24 2 -23 2 -58 -7 -29 -7 -30 -7 -12 13 17 20 14 33
-9 33 -8 0 -11 -6 -8 -14 4 -11 -6 -16 -40 -21 -25 -4 -43 -11 -40 -16 3 -6
-17 -7 -48 -3 -52 6 -53 6 -53 -19 l0 -26 23 21 c19 18 22 19 22 5 0 -20 11
-22 28 -5 9 9 12 8 12 -5 0 -13 -9 -17 -33 -17 -36 0 -72 -21 -72 -42 0 -7 -8
-13 -17 -13 -10 0 -23 -8 -30 -16 -7 -9 -26 -20 -43 -24 -27 -7 -28 -8 -10
-15 18 -7 17 -9 -10 -20 -16 -6 -40 -21 -53 -33 l-24 -22 7 28 c7 25 5 27 -24
27 -23 0 -40 -9 -62 -32 -16 -18 -29 -27 -29 -20 0 14 21 41 70 91 20 20 26
28 15 19 -12 -10 -25 -18 -30 -18 -14 0 26 39 64 63 20 12 67 48 105 80 148
123 267 156 407 111z m-661 -23 c0 -24 -39 -36 -47 -14 -6 15 12 33 35 33 6 0
12 -8 12 -19z m1213 -12 c6 -23 -6 -63 -21 -73 -15 -9 -23 39 -12 68 12 31 26
33 33 5z m-1273 -3 c0 -14 -29 -31 -38 -22 -2 3 -2 12 1 21 8 19 37 20 37 1z
m-53 -36 c1 -14 0 -19 -3 -12 -4 9 -10 10 -19 2 -9 -8 -14 -6 -19 6 -8 21 2
36 22 32 10 -2 18 -14 19 -28z m289 19 c34 -6 71 -17 81 -26 17 -14 16 -14 -7
-9 -97 24 -128 26 -193 15 -37 -6 -65 -15 -62 -19 3 -5 12 -7 20 -3 22 8 18
-14 -6 -30 -15 -11 -17 -17 -8 -23 7 -4 19 1 30 14 22 28 55 28 69 1 10 -19
10 -20 -9 -10 -28 16 -48 14 -26 -2 25 -19 5 -30 -49 -29 l-41 1 35 -13 c19
-7 40 -9 46 -4 19 14 95 38 89 28 -3 -5 -36 -24 -73 -41 -86 -41 -164 -120
-262 -264 -143 -210 -237 -280 -381 -280 -67 0 -81 4 -124 30 -36 22 -57 45
-78 85 -27 52 -29 61 -25 150 3 82 8 104 36 162 18 36 53 87 79 112 38 38 53
46 82 45 33 0 34 -1 14 -11 -13 -6 -26 -20 -29 -32 -4 -12 -18 -35 -31 -53
-14 -18 -23 -40 -20 -50 3 -13 5 -12 7 7 1 14 6 0 10 -30 7 -43 15 -61 39 -82
66 -59 142 -29 267 106 137 149 242 221 362 250 72 18 82 18 158 5z m-346 -25
c0 -16 -16 -19 -25 -4 -8 13 4 32 16 25 5 -4 9 -13 9 -21z m-260 -14 c0 -5 -5
-10 -11 -10 -5 0 -7 5 -4 10 3 6 8 10 11 10 2 0 4 -4 4 -10z m515 0 c-3 -5
-16 -10 -28 -9 -20 1 -20 2 3 9 14 4 26 8 28 9 2 1 0 -3 -3 -9z m45 -10 c0 -5
-9 -10 -21 -10 -11 0 -17 5 -14 10 3 6 13 10 21 10 8 0 14 -4 14 -10z m385
-10 c-3 -5 -14 -10 -23 -10 -15 0 -15 2 -2 10 20 13 33 13 25 0z m-365 -14 c0
-3 -4 -8 -10 -11 -5 -3 -10 -1 -10 4 0 6 5 11 10 11 6 0 10 -2 10 -4z m407 -2
c-3 -3 -12 -4 -19 -1 -8 3 -5 6 6 6 11 1 17 -2 13 -5z m417 -90 c-8 -30 -11
-30 -35 -1 -18 21 -26 77 -13 90 4 3 17 -10 30 -29 17 -24 22 -43 18 -60z
m-517 54 c-3 -7 -5 -2 -5 12 0 14 2 19 5 13 2 -7 2 -19 0 -25z m43 22 c-20
-13 -33 -13 -25 0 3 6 14 10 23 10 15 0 15 -2 2 -10z m117 -6 c-3 -3 -12 -4
-19 -1 -8 3 -5 6 6 6 11 1 17 -2 13 -5z m-48 -8 c-2 -2 -31 -15 -64 -28 -33
-14 -96 -51 -139 -82 -116 -84 -193 -124 -281 -146 -83 -21 -210 -27 -220 -10
-4 6 22 10 72 10 140 0 255 44 418 161 48 35 111 71 139 81 48 16 85 23 75 14z
m-1059 -63 c0 -13 -6 -23 -14 -23 -16 0 -31 53 -20 71 10 16 34 -18 34 -48z
m1120 47 c12 -8 11 -10 -7 -10 -13 0 -23 5 -23 10 0 13 11 13 30 0z m88 3
c-10 -2 -28 -2 -40 0 -13 2 -5 4 17 4 22 1 32 -1 23 -4z m-1043 -13 c3 -5 -1
-10 -9 -10 -9 0 -16 5 -16 10 0 6 4 10 9 10 6 0 13 -4 16 -10z m1376 -17 c-12
-20 -14 -14 -5 12 4 9 9 14 11 11 3 -2 0 -13 -6 -23z m-676 7 c-3 -5 -15 -10
-26 -10 -11 0 -17 5 -14 10 3 6 15 10 26 10 11 0 17 -4 14 -10z m400 -15 c14
-13 25 -31 25 -39 0 -32 -99 24 -100 57 0 17 53 5 75 -18z m-1310 -26 c5 -22
2 -36 -9 -47 -15 -15 -16 -14 -17 8 0 14 -3 19 -6 12 -6 -16 -23 -5 -23 15 0
20 30 54 41 48 4 -3 11 -19 14 -36z m1226 21 c25 -20 20 -24 -18 -14 -13 4
-23 13 -23 20 0 19 14 17 41 -6z m-1601 -25 c14 -8 49 -14 78 -15 33 0 51 -4
47 -10 -3 -5 -30 -10 -60 -10 -43 0 -60 5 -82 25 -31 27 -22 32 17 10z m465
-5 c10 -11 13 -20 7 -20 -6 0 -16 9 -22 20 -6 11 -9 20 -7 20 2 0 12 -9 22
-20z m1105 -114 c37 -50 84 -105 104 -123 20 -17 36 -41 36 -52 0 -12 11 -44
25 -71 14 -27 25 -61 25 -75 0 -13 5 -45 12 -70 9 -35 9 -48 0 -57 -9 -9 -12
-6 -12 18 0 41 -11 75 -21 68 -5 -3 -14 7 -20 23 -10 26 -12 27 -19 8 -7 -17
-9 -17 -9 -2 -1 24 -21 21 -21 -3 0 -11 7 -37 15 -57 8 -20 13 -38 10 -41 -3
-3 4 -11 15 -19 24 -17 17 -36 -17 -52 -19 -9 -29 -9 -37 -1 -8 8 -6 9 6 5 13
-5 15 -2 11 17 -6 21 -5 22 13 8 18 -14 18 -14 5 3 -13 17 -21 45 -24 90 -1
15 -7 17 -42 12 -29 -5 -36 -3 -25 4 11 8 11 11 2 11 -7 0 -15 -6 -18 -14 -6
-16 -34 -11 -34 6 0 5 6 6 13 2 6 -4 4 1 -5 12 -9 11 -22 31 -28 44 -10 23
-10 23 -6 2 2 -12 0 -20 -5 -16 -5 3 -9 0 -9 -5 0 -6 6 -11 14 -11 8 0 18 -4
21 -10 3 -5 2 -10 -4 -10 -18 0 -81 61 -81 79 0 11 7 7 25 -14 16 -20 24 -25
25 -14 0 8 -6 21 -12 28 -11 11 -10 13 4 8 12 -4 18 0 20 16 3 17 7 12 19 -22
8 -25 21 -47 29 -49 7 -3 10 0 6 7 -4 6 -2 11 4 11 6 0 10 -7 8 -16 -2 -10 3
-19 10 -21 6 -3 12 1 12 7 0 10 3 10 15 0 8 -6 18 -9 23 -6 16 9 23 72 12 100
-6 17 -6 26 0 26 6 0 10 10 9 23 0 12 -3 17 -5 11 -3 -7 -14 -10 -24 -7 -15 4
-18 11 -13 34 5 28 4 29 -28 28 -21 -1 -26 -3 -14 -6 29 -7 35 -16 19 -31 -8
-7 -14 -9 -14 -4 0 6 -12 18 -27 28 -18 11 -24 12 -17 3 7 -8 12 -26 12 -42 0
-22 -3 -25 -14 -16 -7 6 -13 23 -12 37 1 15 -2 35 -7 46 -7 16 -6 17 15 6 33
-18 47 3 16 24 -20 13 -26 25 -26 54 0 31 -4 38 -20 39 -23 2 -27 -12 -5 -21
24 -9 17 -26 -10 -26 -18 0 -25 5 -25 20 0 11 -18 39 -40 61 -47 49 -49 62
-12 75 39 15 70 -10 152 -120z m286 110 c3 -15 0 -33 -9 -46 -15 -22 -15 -22
-26 -2 -12 23 -14 55 -4 65 14 15 33 6 39 -17z m52 -51 l-4 -30 -13 30 c-6 16
-9 41 -5 55 l6 25 10 -25 c5 -13 7 -38 6 -55z m-1463 34 c5 -13 1 -27 -9 -37
-14 -14 -16 -13 -25 9 -5 15 -5 29 1 37 15 18 26 15 33 -9z m1158 1 c3 -11 10
-20 17 -20 6 0 8 5 4 13 -5 8 -2 8 9 -2 26 -21 21 -34 -10 -26 -34 8 -58 29
-49 44 11 17 23 13 29 -9z m-1277 -44 c3 -20 1 -43 -6 -57 -12 -22 -13 -22
-26 -4 -17 23 -18 77 -2 93 16 16 26 6 34 -32z m1370 36 c14 -9 25 -42 19 -53
-9 -14 -55 21 -55 42 0 19 16 25 36 11z m-330 -34 c20 -17 49 -55 66 -84 18
-33 39 -56 56 -63 l27 -9 -32 -1 -32 -1 3 -59 c2 -33 7 -64 10 -69 3 -6 2 -13
-3 -16 -10 -7 -31 69 -31 111 0 15 4 34 9 42 12 19 -33 85 -95 140 -29 25 -41
41 -31 41 9 0 33 -14 53 -32z m-963 1 c7 -26 -1 -49 -18 -49 -8 0 -12 11 -10
33 3 38 3 37 14 37 5 0 11 -9 14 -21z m1407 -25 c0 -11 -10 -29 -21 -40 l-22
-19 7 44 c4 24 9 48 13 54 8 12 23 -13 23 -39z m74 24 c9 -37 6 -72 -8 -90
-19 -26 -23 -23 -29 27 -9 63 22 116 37 63z m-844 -8 c0 -5 -6 -13 -12 -17 -7
-4 -18 -17 -24 -28 -6 -11 -22 -21 -35 -22 -23 -3 -23 -3 -2 6 12 6 24 23 28
40 5 22 12 31 26 31 10 0 19 -4 19 -10z m590 -6 c23 -9 39 -18 37 -21 -8 -7
-97 19 -97 28 0 13 14 11 60 -7z m-1793 -89 c23 -46 73 -93 104 -100 31 -7 61
6 102 43 35 33 35 13 -1 -53 -45 -82 -119 -115 -197 -85 -28 10 -55 62 -55
103 0 14 -9 46 -21 71 -14 32 -18 56 -14 77 l7 31 30 -29 c16 -15 37 -41 45
-58z m541 6 c-4 -36 -28 -39 -29 -4 0 23 -2 25 -8 9 -12 -31 -19 -4 -9 34 l10
34 19 -24 c10 -14 18 -36 17 -49z m1081 25 c-3 -3 -11 5 -18 17 -13 21 -12 21
5 5 10 -10 16 -20 13 -22z m369 3 c-9 -6 -8 -12 1 -23 16 -19 12 -20 -25 -6
l-27 11 23 24 c17 18 26 22 31 13 5 -7 3 -16 -3 -19z m-558 17 c0 -2 -7 -6
-15 -10 -8 -3 -15 -1 -15 4 0 6 7 10 15 10 8 0 15 -2 15 -4z m405 -11 c167
-39 311 -137 424 -288 50 -66 55 -93 46 -240 -7 -120 -8 -122 -40 -152 -18
-16 -35 -43 -39 -58 -4 -15 -11 -25 -16 -22 -6 3 -10 -6 -10 -20 0 -15 -5 -25
-12 -24 -38 5 -60 -3 -65 -21 -3 -11 -10 -20 -15 -20 -5 0 -6 5 -3 10 3 6 -3
10 -15 10 -13 0 -19 -4 -14 -11 4 -8 -1 -9 -16 -4 -15 5 -20 4 -16 -4 4 -6 3
-11 -2 -11 -9 0 -26 31 -20 34 2 1 20 9 40 18 43 20 63 48 72 99 4 21 19 47
37 65 73 68 99 151 64 200 -8 12 -11 24 -8 28 3 3 0 6 -7 6 -7 0 -10 3 -6 7 4
4 18 -6 32 -22 25 -29 26 -29 10 -3 -9 15 -16 34 -16 42 0 9 -6 13 -14 10 -8
-3 -31 10 -51 28 -21 18 -50 38 -64 45 -25 11 -25 11 -3 12 12 1 22 6 22 12 0
5 -5 7 -11 4 -5 -4 -19 1 -29 10 -15 13 -36 18 -82 17 -64 0 -65 1 -15 12 25
6 40 36 17 36 -5 0 -10 -4 -10 -8 0 -11 -48 -13 -55 -2 -3 6 4 10 17 10 l23 1
-24 20 c-13 11 -26 17 -30 14 -3 -3 1 -10 9 -15 12 -8 10 -10 -7 -10 -26 0
-27 3 -12 32 9 16 7 24 -7 37 -11 9 -13 9 -6 2 21 -26 13 -32 -19 -16 -17 9
-28 19 -25 22 3 3 -2 12 -12 20 -9 8 -10 11 -2 7 8 -5 5 4 -8 20 -12 16 -19
32 -16 37 3 5 -8 9 -23 9 -16 0 -38 7 -49 15 -19 14 -19 14 1 15 11 0 47 -7
80 -15z m-370 -16 c0 -9 -9 -13 -25 -11 -24 2 -24 2 -8 -15 16 -16 19 -16 39
3 17 14 23 16 27 6 2 -7 14 -17 26 -22 25 -9 46 -65 46 -121 0 -32 17 -66 84
-176 49 -78 80 -353 47 -410 -10 -17 -10 -17 -12 2 -1 11 -1 24 0 28 1 8 -33
-15 -69 -46 -30 -25 -73 -111 -67 -135 3 -12 6 -8 12 13 3 17 15 42 26 55 l19
25 -12 -31 c-13 -36 -3 -79 12 -54 5 8 7 24 4 35 -6 19 -5 18 15 -2 31 -32 51
-30 51 7 0 17 5 30 10 30 13 0 13 -134 0 -181 -13 -47 -67 -108 -134 -153 -62
-41 -77 -45 -50 -14 l19 22 -25 -17 c-14 -10 -33 -20 -42 -24 -10 -3 -18 -9
-18 -13 0 -14 -66 -31 -112 -29 -24 1 -54 -1 -68 -5 -17 -5 -20 -4 -12 2 11 7
8 11 -13 16 -14 4 -30 4 -35 1 -18 -11 -11 -25 13 -26 18 -1 19 -2 3 -6 -10
-3 -40 7 -67 22 -73 39 -187 75 -240 75 -39 0 -55 6 -82 30 -40 34 -71 103
-82 175 l-7 50 21 -19 c15 -13 18 -22 10 -27 -21 -13 6 -16 35 -4 16 7 25 14
19 16 -12 5 -5 79 8 79 5 0 6 -6 4 -12 -3 -7 6 -18 20 -25 30 -14 31 -10 4 28
-22 32 -91 82 -126 93 -19 6 -23 4 -24 -16 0 -23 0 -23 -11 2 -21 52 -26 139
-15 290 10 148 17 180 40 180 5 0 4 -8 -4 -18 -8 -10 -5 -7 6 6 11 13 59 65
107 115 65 68 99 96 132 108 44 16 45 16 68 -8 24 -23 58 -24 58 -1 0 6 -6 5
-15 -2 -16 -13 -35 -6 -35 14 0 9 19 15 53 19 28 3 65 12 82 21 27 14 31 14
49 -2 18 -16 19 -16 13 1 -9 23 18 34 40 16 15 -12 16 -12 10 3 -9 25 37 36
58 14 21 -20 29 -20 46 1 13 15 12 15 -7 5 -21 -11 -34 -7 -34 10 0 4 15 8 33
8 17 0 39 5 47 10 19 12 35 7 35 -11z m65 -15 c0 -8 -4 -14 -10 -14 -5 0 -10
9 -10 21 0 11 5 17 10 14 6 -3 10 -13 10 -21z m168 -37 c7 -5 11 -12 8 -14 -5
-5 -66 25 -66 33 0 7 42 -6 58 -19z m-1593 -47 c17 -7 24 -14 17 -17 -16 -6
-74 28 -80 47 -4 12 -1 12 14 -2 10 -9 33 -22 49 -28z m865 16 c0 -2 -7 -7
-16 -10 -8 -3 -12 -2 -9 4 6 10 25 14 25 6z m680 -16 c0 -5 -4 -10 -10 -10 -5
0 -10 5 -10 10 0 6 5 10 10 10 6 0 10 -4 10 -10z m32 -59 c13 -16 33 -34 45
-40 19 -10 22 -9 16 5 -5 14 -3 15 15 5 30 -16 52 -51 52 -83 0 -16 -2 -28 -4
-28 -3 0 -18 14 -34 30 -17 17 -37 30 -46 30 -9 0 -25 19 -37 41 -15 31 -24
38 -32 30 -15 -15 -27 -14 -27 4 0 8 5 15 11 15 5 0 7 5 4 10 -14 23 15 8 37
-19z m-14 -50 c3 -8 -1 -12 -9 -9 -7 2 -15 10 -17 17 -3 8 1 12 9 9 7 -2 15
-10 17 -17z m407 -41 c8 -13 -5 -13 -25 0 -13 8 -13 10 2 10 9 0 20 -4 23 -10z
m363 -30 c23 -35 29 -70 12 -70 -23 0 -60 50 -60 80 0 39 17 36 48 -10z m-391
14 c-3 -3 -12 -4 -19 -1 -8 3 -5 6 6 6 11 1 17 -2 13 -5z m61 -50 c70 -34 104
-85 110 -163 5 -67 -13 -111 -56 -138 -15 -9 -48 -34 -74 -55 -33 -28 -62 -41
-105 -50 -63 -12 -104 -41 -123 -89 -14 -33 -30 -38 -30 -9 0 11 -7 20 -15 20
-9 0 -15 9 -15 23 0 12 -5 29 -11 37 -8 11 -9 3 -4 -30 3 -25 10 -46 15 -48 6
-2 10 -27 11 -55 l1 -52 12 40 13 40 21 -45 c29 -62 29 -140 -2 -205 -12 -28
-59 -90 -104 -138 -81 -87 -102 -126 -102 -190 0 -45 26 -95 62 -117 42 -27
125 -23 166 7 61 45 106 152 105 251 0 30 3 50 8 45 12 -12 39 -153 39 -201 0
-28 3 -33 10 -22 7 11 10 -1 10 -41 0 -43 -5 -62 -21 -80 l-21 -24 7 25 c3 14
8 43 11 65 4 36 3 35 -11 -13 -22 -77 -38 -104 -89 -146 -108 -88 -240 -107
-378 -54 -16 6 -28 14 -28 19 0 5 12 3 28 -4 53 -27 182 -45 182 -25 0 5 4 7
10 3 5 -3 21 -3 35 1 20 5 24 11 19 26 -4 13 1 24 13 34 16 12 15 13 -12 4
-16 -5 -39 -11 -50 -13 -18 -4 -18 -5 5 -15 16 -7 19 -11 9 -11 -23 -1 -46 27
-28 33 97 28 172 70 168 94 -1 4 9 13 22 19 14 8 18 13 9 13 -8 0 -31 -18 -51
-41 -32 -37 -41 -42 -82 -44 -26 0 -50 -5 -54 -9 -4 -4 6 -5 22 -1 23 5 26 4
15 -4 -18 -13 -77 -14 -85 -2 -3 5 3 12 12 14 10 3 -6 5 -35 4 -45 0 -55 -3
-63 -21 -8 -19 -9 -18 -6 7 3 15 0 27 -4 27 -5 0 -9 5 -9 11 0 6 8 8 18 5 67
-18 68 -18 34 3 -18 12 -40 21 -50 21 -12 0 -22 14 -31 45 -7 25 -19 45 -26
45 -8 0 -11 8 -8 20 4 14 0 20 -10 20 -9 0 -21 8 -26 18 -6 9 -11 12 -11 7 0
-6 5 -16 11 -22 7 -7 8 -17 1 -28 -7 -14 -11 -15 -17 -4 -11 17 -6 103 6 107
5 2 9 11 9 20 0 15 2 15 10 2 5 -8 10 -13 10 -10 1 3 4 25 6 50 6 48 14 63 21
42 4 -10 9 -8 19 5 17 22 18 37 2 27 -7 -4 -8 -3 -4 5 4 6 11 9 14 7 4 -2 18
12 31 31 12 19 18 32 12 28 -19 -11 -12 5 20 45 17 21 44 44 60 50 34 15 55
45 80 118 22 63 24 103 7 120 -21 21 -16 107 9 139 42 52 77 116 84 152 l7 36
1 -35 c1 -39 -27 -108 -52 -129 -12 -10 -17 -28 -16 -65 l2 -51 6 51 c3 28 13
59 20 68 23 28 85 55 163 71 137 29 193 84 169 165 -6 22 -17 42 -24 46 -6 4
-9 3 -4 -1 4 -5 1 -15 -7 -24 -7 -9 -18 -29 -24 -46 l-10 -30 -1 28 c-1 15 -6
27 -12 27 -7 0 -9 -10 -4 -27 8 -32 28 -49 33 -28 4 16 22 21 22 7 0 -24 -35
-74 -57 -83 -32 -12 -46 -12 -38 1 10 16 -13 75 -40 100 -17 16 -24 33 -23 54
1 17 -1 41 -5 53 -7 18 -3 22 24 28 21 5 34 3 39 -5 4 -7 12 -10 17 -7 5 3 17
-2 25 -12 12 -15 13 -22 5 -31 -8 -8 -4 -7 11 1 12 8 22 16 22 19 0 9 -75 47
-107 55 -18 3 -36 11 -39 17 -12 18 76 0 134 -28z m-298 -44 c0 -5 -2 -10 -4
-10 -3 0 -8 5 -11 10 -3 6 -1 10 4 10 6 0 11 -4 11 -10z m535 -42 c29 -62 33
-91 11 -68 -14 15 -49 120 -40 120 3 0 16 -24 29 -52z m-555 12 c26 -20 24
-35 -4 -24 -9 3 -16 12 -16 19 0 8 -8 16 -17 18 -13 3 -14 5 -3 6 8 0 26 -8
40 -19z m-1310 -16 c0 -16 -50 -84 -62 -84 -4 0 -4 7 -1 17 4 11 3 14 -6 9 -6
-4 -10 -15 -7 -24 6 -20 -19 -56 -33 -48 -5 4 -11 -6 -13 -20 -4 -34 -34 -56
-48 -34 -8 13 -10 12 -10 -2 0 -11 8 -18 20 -18 11 0 20 -4 20 -10 0 -5 -8
-10 -18 -10 -10 0 -23 -5 -29 -11 -6 -6 -21 -9 -34 -7 -48 6 -13 69 102 186
49 50 78 72 95 72 15 0 24 -6 24 -16z m137 -23 c13 -11 27 -32 33 -47 9 -27 9
-28 -5 -9 -8 11 -27 32 -42 48 -30 30 -20 36 14 8z m-46 -10 c23 -19 23 -20 5
-27 -12 -5 -21 -3 -23 3 -3 7 -18 9 -41 6 l-37 -6 19 21 c24 27 47 28 77 3z
m1223 -7 c3 -8 2 -12 -4 -9 -6 3 -10 10 -10 16 0 14 7 11 14 -7z m151 -14 c0
-10 -8 -14 -24 -12 -30 3 -35 7 -26 22 10 16 50 8 50 -10z m-1430 -22 c32 -14
32 -26 1 -24 -13 0 -22 4 -19 9 2 4 -3 7 -12 7 -8 0 -18 -7 -21 -15 -6 -15
-34 -22 -34 -8 0 12 33 43 46 43 7 0 25 -5 39 -12z m111 -5 c16 -22 18 -49 4
-58 -9 -5 -40 50 -40 70 0 12 24 4 36 -12z m1301 -9 c-3 -3 -12 -4 -19 -1 -8
3 -5 6 6 6 11 1 17 -2 13 -5z m413 -20 c0 -8 -4 -14 -10 -14 -5 0 -10 9 -10
21 0 11 5 17 10 14 6 -3 10 -13 10 -21z m50 -38 c-1 -17 2 -44 6 -61 6 -27 5
-29 -10 -15 -9 9 -18 34 -20 55 -3 22 -8 51 -12 65 -7 25 -7 25 15 6 14 -13
21 -31 21 -50z m-1794 11 c7 -22 -12 -47 -37 -47 -24 0 -34 19 -15 26 26 10
19 33 -6 26 -23 -5 -23 -5 -4 16 15 17 21 19 37 9 11 -7 22 -20 25 -30z m-131
0 c11 -9 15 -19 10 -27 -6 -10 -10 -9 -17 4 -13 23 -35 20 -44 -6 -4 -15 -1
-25 12 -35 18 -13 13 -17 -18 -14 -21 2 -43 -35 -27 -45 11 -6 -6 -23 -23 -24
-13 0 4 64 24 89 10 13 18 31 18 41 0 32 32 41 65 17z m1865 -34 c0 -20 -3
-24 -11 -16 -7 7 -9 19 -6 27 10 24 17 19 17 -11z m-1798 -18 c11 -25 -2 -55
-23 -55 -14 0 -11 38 4 43 7 4 3 8 -10 12 -13 4 -20 11 -17 16 10 17 35 9 46
-16z m1798 -28 c0 -7 -7 -22 -15 -33 -12 -16 -14 -17 -15 -2 0 23 11 48 21 48
5 0 9 -6 9 -13z m-1832 -46 c2 -14 -2 -21 -12 -21 -9 0 -13 6 -10 13 3 8 -3
20 -12 28 -15 13 -16 12 -9 -11 7 -22 6 -23 -8 -11 -13 10 -14 18 -6 33 9 18
13 18 32 5 12 -8 23 -24 25 -36z m1901 -7 c13 -28 15 -74 3 -74 -9 0 -31 50
-38 84 -6 33 18 26 35 -10z m-75 -53 c-10 -40 -21 -47 -44 -26 -26 23 -25 40
2 59 29 21 50 4 42 -33z m66 -77 c0 -24 -3 -44 -7 -44 -10 0 -43 100 -43 126
1 16 4 15 25 -9 19 -21 25 -40 25 -73z m-376 40 c-1 -20 -7 -41 -13 -47 -14
-14 -14 -6 -1 30 9 26 9 27 -5 9 -8 -11 -15 -23 -15 -28 0 -4 -8 -8 -17 -8
-15 0 -16 -2 -3 -10 11 -7 12 -15 4 -37 -12 -35 -42 -41 -75 -14 -23 19 -24
19 -5 40 11 12 27 21 37 21 12 0 16 6 12 20 -4 16 3 24 38 40 24 11 44 20 45
20 1 0 0 -16 -2 -36z m297 -42 c50 -50 59 -87 29 -115 l-22 -22 6 22 c4 12 2
24 -4 28 -5 3 -10 25 -10 48 0 30 -3 38 -10 27 -7 -12 -12 -12 -29 5 -12 10
-24 15 -28 11 -4 -4 -1 -11 7 -16 13 -8 12 -10 -2 -10 -24 0 -31 16 -18 40 16
30 38 25 81 -18z m-547 -31 c11 -52 -3 -115 -40 -179 -35 -59 -41 -48 -8 14
16 29 28 72 32 107 4 51 2 61 -19 83 l-24 26 25 -4 c21 -2 27 -11 34 -47z
m-1034 1 c0 -15 -2 -15 -10 -2 -13 20 -13 33 0 25 6 -3 10 -14 10 -23z m907 6
c-3 -8 -6 -5 -6 6 -1 11 2 17 5 13 3 -3 4 -12 1 -19z m91 -13 c-3 -3 -9 2 -12
12 -6 14 -5 15 5 6 7 -7 10 -15 7 -18z m-1113 9 c12 -5 4 -13 -32 -34 -41 -23
-57 -27 -97 -23 -26 3 -44 9 -39 13 13 11 104 42 145 49 3 0 14 -2 23 -5z
m1398 -8 c5 -14 -10 -36 -25 -36 -4 0 -8 8 -8 18 0 31 23 44 33 18z m236 -5
c34 -19 62 -86 49 -123 -6 -15 -19 -33 -30 -39 -25 -13 -34 -6 -13 11 10 8 15
30 15 62 0 46 -1 49 -17 37 -15 -12 -16 -12 -10 4 5 12 1 17 -12 17 -29 0 -51
11 -51 25 0 7 -6 15 -12 18 -7 3 3 4 22 2 20 -1 46 -7 59 -14z m-1559 -26 c29
-35 -22 -73 -80 -59 l-25 6 22 9 c12 4 25 20 29 34 7 28 34 34 54 10z m1047
-7 c-3 -8 -6 -5 -6 6 -1 11 2 17 5 13 3 -3 4 -12 1 -19z m447 -3 c21 -22 38
-83 34 -124 -3 -35 -31 -63 -77 -76 -31 -9 -19 13 15 25 18 7 24 17 24 39 0
16 5 33 10 36 6 3 10 11 10 16 0 6 -4 7 -10 4 -5 -3 -11 4 -12 17 0 13 -2 29
-2 37 -1 8 -7 16 -14 19 -8 2 -10 -2 -5 -15 6 -16 5 -16 -10 -4 -13 10 -15 17
-6 27 15 18 24 18 43 -1z m-256 -15 c15 0 21 -8 24 -35 5 -42 3 -45 -33 -45
-23 0 -28 5 -31 33 -3 17 -9 40 -13 51 -7 16 -6 17 13 7 11 -6 29 -11 40 -11z
m112 11 c0 -16 -41 -61 -51 -56 -13 9 -11 39 3 53 14 14 48 16 48 3z m30 -32
c0 -28 -18 -59 -35 -59 -24 0 -26 17 -4 54 22 37 39 39 39 5z m69 -5 c6 -14
11 -34 11 -44 0 -17 -7 -20 -42 -19 -24 0 -37 3 -30 6 6 2 12 22 12 42 0 21 3
40 6 44 11 10 31 -3 43 -29z m-1722 15 c8 -8 17 -8 31 0 28 15 65 14 60 -1 -6
-17 -85 -47 -124 -47 -17 -1 -37 6 -44 14 -15 18 -14 19 25 33 39 14 39 14 52
1z m-102 -29 c-3 -5 -21 -10 -38 -9 -27 0 -29 2 -12 9 28 12 57 12 50 0z m222
-6 c-3 -3 -12 -4 -19 -1 -8 3 -5 6 6 6 11 1 17 -2 13 -5z m63 1 c0 -2 -14 -12
-31 -20 -34 -18 -80 -17 -87 2 -2 9 5 11 26 7 17 -4 32 -1 36 5 7 11 56 16 56
6z m94 -26 c37 -21 47 -39 22 -39 -16 0 -66 38 -66 51 0 13 4 12 44 -12z
m1562 -16 c-10 -10 -19 5 -10 18 6 11 8 11 12 0 2 -7 1 -15 -2 -18z m-2020 2
c66 -17 74 -23 54 -35 -8 -6 -10 -10 -4 -10 5 0 15 -12 22 -27 10 -25 11 -25
5 -3 -3 14 -6 32 -6 40 0 8 -4 21 -10 28 -6 8 -6 12 1 12 5 0 31 -26 57 -57
59 -73 139 -128 209 -144 46 -10 76 -9 185 6 142 19 171 18 276 -13 90 -27
157 -70 192 -123 25 -39 28 -51 27 -128 0 -109 -27 -180 -97 -263 -29 -33 -63
-79 -77 -102 -22 -35 -43 -49 -137 -96 -90 -45 -122 -67 -170 -117 -56 -60
-93 -78 -108 -53 -3 6 5 10 19 10 17 0 37 13 58 37 18 20 48 52 66 71 17 18
32 37 32 41 0 12 50 55 56 48 4 -3 -7 -18 -22 -32 -29 -26 -29 -26 -4 -19 14
4 41 17 60 30 19 13 42 24 51 24 9 0 22 6 28 13 8 10 7 14 -4 14 -8 0 -15 -4
-15 -9 0 -4 -10 -8 -22 -8 -22 1 -23 1 -4 15 11 8 26 15 35 15 8 0 23 7 33 17
20 18 25 53 7 53 -6 0 -8 8 -4 19 7 24 -12 36 -75 45 -42 6 -44 6 -25 -8 15
-11 16 -15 5 -15 -25 1 -71 32 -85 59 -28 53 -45 99 -45 125 0 14 -4 23 -10
20 -8 -5 -90 30 -90 38 0 2 16 3 35 3 23 -1 34 -5 31 -13 -3 -7 -1 -15 5 -19
17 -10 21 3 9 26 -10 18 -19 21 -56 18 -55 -4 -58 8 -5 17 54 9 78 -7 91 -58
23 -87 32 -107 61 -132 17 -14 38 -25 47 -25 9 1 0 10 -20 21 -52 27 -78 79
-40 79 14 0 15 -2 2 -10 -12 -7 -12 -12 4 -29 11 -12 23 -21 28 -21 22 0 164
-102 170 -123 5 -14 6 -7 3 18 -3 32 -2 36 6 22 10 -18 12 -18 26 2 8 12 15
30 16 40 1 11 4 18 9 15 4 -2 12 5 18 17 9 16 9 24 -1 33 -9 8 -10 8 -5 -1 3
-6 2 -14 -4 -18 -6 -4 -10 6 -10 24 0 20 5 31 14 31 23 0 38 102 16 115 -5 3
-9 21 -9 38 l1 32 7 -30 c7 -34 34 -41 38 -10 2 11 0 14 -3 8 -9 -20 -23 -15
-17 6 8 29 -33 96 -83 138 -25 21 -50 37 -56 35 -6 -1 -16 2 -23 8 -7 6 -46
11 -85 12 -45 0 -67 4 -59 9 10 6 5 9 -16 9 -23 0 -27 -3 -15 -10 11 -7 2 -8
-27 -4 -30 5 -43 3 -43 -5 0 -7 8 -11 18 -10 50 5 26 -5 -63 -26 -93 -22 -148
-31 -117 -18 33 13 -2 44 -48 42 -8 -1 -5 -4 8 -7 24 -7 31 -29 7 -24 -7 1
-16 -2 -20 -8 -3 -5 -20 -10 -37 -10 -17 0 -28 3 -25 7 10 9 -13 33 -31 33
-13 0 -12 -3 4 -15 28 -21 1 -19 -71 6 -70 24 -111 52 -120 79 -8 24 -22 26
-27 5 -2 -13 -7 -12 -22 6 -14 16 -15 21 -3 16 12 -4 14 3 12 37 -3 54 -13 86
-26 86 -6 0 -17 7 -25 15 -19 19 -9 19 62 0z m431 -20 c-5 -15 -86 -18 -103
-4 -16 13 -9 30 9 23 8 -3 24 -1 38 4 26 10 62 -5 56 -23z m-508 -25 c0 -10
-3 -8 -9 5 -12 27 -12 43 0 25 5 -8 9 -22 9 -30z m1797 31 c-4 -5 7 -4 22 1
16 6 38 8 48 4 17 -7 14 -12 -23 -47 -49 -46 -76 -49 -100 -13 -16 26 -16 27
6 45 24 19 57 26 47 10z m-1745 -32 c6 -12 6 -19 0 -19 -5 0 -12 6 -15 13 -6
12 -1 -16 10 -55 6 -21 5 -21 -15 4 -25 31 -30 91 -6 82 9 -4 20 -15 26 -25z
m1934 9 c-4 -13 -22 -38 -41 -55 -27 -27 -42 -33 -76 -33 -57 0 -77 13 -43 28
14 7 25 8 25 2 0 -12 61 -1 75 13 7 7 6 8 -2 3 -18 -10 -16 5 5 30 16 20 35
31 55 33 5 1 5 -9 2 -21z m-1461 -22 c15 3 26 2 26 -4 0 -14 -52 -22 -73 -11
-10 6 -15 14 -11 20 4 7 10 6 19 -1 7 -6 25 -8 39 -4z m1486 4 c0 -5 -5 -10
-11 -10 -5 0 -7 5 -4 10 3 6 8 10 11 10 2 0 4 -4 4 -10z m-1454 -50 c8 0 14
-5 14 -11 0 -15 -53 -6 -58 10 -3 10 0 12 12 8 10 -4 24 -7 32 -7z m64 -20 c0
-5 -2 -10 -4 -10 -3 0 -8 5 -11 10 -3 6 -1 10 4 10 6 0 11 -4 11 -10z m1124
-5 c23 -17 22 -18 -24 -34 -27 -9 -32 -9 -22 1 6 6 12 20 12 30 0 22 9 22 34
3z m-1186 -34 c3 -8 -1 -12 -9 -9 -7 2 -15 10 -17 17 -3 8 1 12 9 9 7 -2 15
-10 17 -17z m1233 -17 c8 -10 15 -49 17 -101 l3 -84 -30 16 c-17 8 -31 23 -31
32 0 14 2 14 15 -3 8 -11 14 -14 15 -6 0 7 -9 20 -20 29 -28 24 -25 34 8 28
22 -4 21 -3 -6 8 -19 7 -39 22 -44 32 -11 19 -10 19 8 3 18 -16 19 -15 19 13
0 30 -13 37 -33 17 -9 -9 -12 -9 -12 0 0 30 69 42 91 16z m172 -24 c36 -42 69
-135 65 -184 l-3 -41 -8 50 c-10 60 -43 138 -75 177 -13 15 -19 28 -14 28 6 0
22 -13 35 -30z m148 2 c60 -38 117 -107 130 -156 15 -55 6 -144 -20 -192 l-21
-39 6 55 c11 104 -33 226 -113 311 -52 56 -47 62 18 21z m-718 -9 c-111 -98
-164 -288 -112 -403 11 -24 28 -54 37 -65 l17 -20 -24 20 c-32 27 -71 117 -71
165 0 59 19 139 47 193 29 58 99 137 121 137 11 0 6 -9 -15 -27z m-1263 2 c14
-8 19 -14 10 -14 -8 0 -26 6 -40 14 -14 8 -19 14 -10 14 8 0 26 -6 40 -14z
m1546 -30 c7 -27 -10 -55 -32 -55 -16 0 -18 33 -4 61 15 26 28 24 36 -6z
m-1477 -55 c10 0 33 -51 27 -58 -3 -2 -18 8 -34 24 -15 16 -45 42 -65 57 -55
42 -45 51 14 11 28 -19 54 -34 58 -34z m1090 47 c-11 -7 -127 -57 -144 -61
-11 -3 -33 -2 -50 3 -29 9 -29 9 12 10 22 1 72 14 109 30 38 16 71 28 73 25 2
-2 2 -5 0 -7z m-565 -5 c3 -5 19 -7 36 -4 60 9 117 -16 160 -71 22 -27 40 -56
40 -64 0 -19 -35 -12 -36 7 -1 41 -14 57 -42 52 -24 -5 -26 -4 -13 12 15 18
15 18 -14 34 -15 8 -24 7 -37 -5 -12 -11 -25 -13 -45 -7 l-28 8 35 6 c35 7 26
11 -30 14 -19 1 -30 -4 -30 -12 0 -17 -32 -11 -38 7 -3 9 0 11 8 6 8 -5 11 -4
7 2 -4 6 -19 8 -33 5 -19 -3 -25 -1 -20 7 8 13 72 15 80 3z m-464 -22 c0 -5
-2 -10 -4 -10 -3 0 -8 5 -11 10 -3 6 -1 10 4 10 6 0 11 -4 11 -10z m368 -17
c2 -13 -1 -23 -6 -23 -6 0 -17 -3 -26 -6 -9 -3 -16 -1 -16 5 0 6 7 11 16 11 8
0 12 5 9 10 -3 6 -22 10 -41 10 -32 0 -34 -2 -24 -21 15 -27 6 -36 -15 -15 -9
9 -25 16 -36 16 -11 0 -17 5 -14 10 3 6 17 10 30 10 13 0 27 5 30 11 4 5 26 9
48 7 35 -2 43 -7 45 -25z m-623 -2 c40 -6 40 -7 -47 -30 -90 -23 -180 -73
-227 -124 -22 -25 -25 -25 -52 -11 -25 12 -29 21 -29 54 0 56 16 84 63 109 38
19 52 21 147 15 58 -3 123 -9 145 -13z m1721 5 c7 -18 -22 -63 -49 -77 -42
-23 -45 40 -3 73 26 21 45 23 52 4z m388 -43 c9 -26 16 -63 15 -82 0 -30 -4
-24 -18 34 -10 39 -22 79 -26 89 -6 13 -5 17 2 13 6 -4 18 -28 27 -54z m-122
-24 c17 -10 -1 -106 -29 -155 -34 -61 -39 -50 -8 17 29 62 31 99 10 159 -19
54 -18 66 2 20 8 -19 20 -38 25 -41z m-1699 33 c9 -8 17 -22 17 -31 0 -12 -3
-12 -12 -3 -7 7 -20 12 -31 12 -10 0 -16 4 -13 9 3 5 -4 11 -15 14 -12 3 -18
10 -15 15 8 13 46 4 69 -16z m166 2 c12 -15 21 -31 21 -35 0 -15 -28 -10 -34
6 -3 8 -14 15 -24 15 -10 0 -24 6 -31 13 -11 10 -13 9 -7 -5 17 -48 15 -51
-11 -21 -22 24 -34 31 -51 26 -12 -3 -22 -2 -22 1 0 11 38 21 89 23 43 2 52
-1 70 -23z m270 -25 c10 -29 10 -30 -17 -27 -19 2 -27 8 -26 21 1 9 -4 17 -12
17 -27 0 -14 16 15 18 24 2 31 -3 40 -29z m78 15 c3 -9 2 -24 -4 -33 -12 -19
-45 -21 -51 -3 -2 8 2 10 15 5 17 -7 17 -6 1 11 -10 9 -18 22 -18 27 0 16 50
10 57 -7z m-151 -20 c15 -22 15 -27 3 -35 -28 -18 -59 -3 -43 22 4 8 9 7 15
-2 7 -11 9 -11 9 -1 0 7 -7 15 -15 18 -8 4 -12 10 -9 15 9 16 23 10 40 -17z
m-74 -11 c27 -24 23 -43 -10 -43 -15 0 -33 -5 -39 -11 -7 -7 -22 -9 -40 -4
-25 6 -26 8 -8 14 19 8 19 8 0 19 -20 11 -20 11 -1 12 11 0 28 -8 39 -17 19
-17 19 -17 12 6 -5 16 -3 26 6 32 19 12 20 11 41 -8z m288 8 c0 -21 -13 -41
-26 -41 -8 0 -14 5 -14 10 0 6 5 10 10 10 6 0 10 7 10 15 0 8 5 15 10 15 6 0
10 -4 10 -9z m923 -20 c12 -12 -22 -107 -46 -128 -17 -16 -18 -16 -8 11 7 17
7 25 1 21 -6 -3 -10 1 -10 9 0 23 -56 21 -69 -1 -15 -28 -25 -6 -15 33 6 27
19 42 44 56 35 19 84 18 103 -1z m-1535 -19 c2 -7 -3 -12 -12 -12 -9 0 -16 7
-16 16 0 17 22 14 28 -4z m89 -13 c8 -7 30 -14 50 -16 31 -3 34 -2 24 11 -10
11 -19 13 -38 5 -23 -8 -24 -8 -13 6 17 21 53 19 75 -5 17 -19 17 -20 -9 -30
-17 -6 -34 -7 -44 -1 -9 5 -22 5 -32 -1 -21 -14 -73 10 -78 35 -3 14 2 17 23
13 15 -3 33 -11 42 -17z m563 6 c0 -9 -9 -15 -21 -15 -18 0 -19 2 -9 15 7 8
16 15 21 15 5 0 9 -7 9 -15z m60 -51 c0 -13 -4 -24 -10 -24 -5 0 -10 14 -10
31 0 17 4 28 10 24 6 -3 10 -17 10 -31z m-36 -17 c7 -5 3 -7 -9 -5 -13 2 -21
12 -23 28 -2 24 -2 24 9 5 7 -11 17 -24 23 -28z m993 11 c-3 -7 -5 -2 -5 12 0
14 2 19 5 13 2 -7 2 -19 0 -25z m180 10 c-3 -8 -6 -5 -6 6 -1 11 2 17 5 13 3
-3 4 -12 1 -19z m-1597 -8 c0 -5 -5 -10 -11 -10 -5 0 -7 5 -4 10 3 6 8 10 11
10 2 0 4 -4 4 -10z m1499 -34 c-9 -8 -10 -7 -5 7 3 10 7 24 7 30 1 7 3 4 6 -7
3 -10 -1 -23 -8 -30z m-1480 -7 c30 -11 31 -12 15 -30 -13 -15 -29 -18 -76
-17 -60 2 -60 2 -36 20 16 12 19 18 8 19 -8 0 -4 5 10 9 36 11 43 11 79 -1z
m401 -14 c0 -14 -4 -25 -10 -25 -11 0 -14 33 -3 43 11 11 13 8 13 -18z m364 9
c3 -8 2 -12 -4 -9 -6 3 -10 10 -10 16 0 14 7 11 14 -7z m406 -2 c14 -12 20
-24 16 -31 -6 -9 -12 -7 -23 9 -11 16 -23 21 -44 18 -20 -3 -29 0 -29 9 0 20
54 16 80 -5z m-1289 -21 c-6 -10 -9 -20 -6 -22 2 -3 -5 -15 -15 -29 -19 -24
-20 -24 -20 -4 0 12 9 33 21 48 24 30 34 34 20 7z m-237 -6 c-6 -16 -24 -21
-24 -7 0 11 11 22 21 22 5 0 6 -7 3 -15z m426 -46 c0 -38 -1 -39 -37 -39 l-38
1 28 24 c15 13 27 32 27 41 0 13 -10 6 -35 -21 -19 -22 -30 -42 -26 -45 5 -3
-2 -19 -15 -35 -27 -34 -28 -33 -14 14 6 22 6 41 -1 55 -9 19 -9 20 4 3 14
-17 16 -16 36 10 40 54 42 55 57 42 8 -6 14 -29 14 -50z m390 51 c0 -5 -5 -10
-11 -10 -5 0 -7 5 -4 10 3 6 8 10 11 10 2 0 4 -4 4 -10z m353 -12 c3 -10 0
-18 -8 -18 -7 0 -15 8 -17 18 -3 11 0 19 8 19 7 0 15 -9 17 -19z m41 -12 c-1
-9 2 -16 8 -16 5 0 6 -4 3 -10 -14 -22 -34 -10 -33 20 1 18 6 29 12 27 6 -2
10 -12 10 -21z m272 -7 c3 -6 -6 -7 -23 -3 -60 13 -66 16 -53 24 14 9 66 -6
76 -21z m-1466 1 c-14 -10 -27 -17 -29 -14 -6 5 31 33 44 33 6 1 -1 -8 -15
-19z m746 -11 c-14 -34 -87 -89 -118 -89 -26 0 -22 7 15 26 47 24 76 54 70 73
-4 12 -2 13 4 3 8 -10 12 -10 23 3 19 23 20 18 6 -16z m-213 -187 c21 -18 37
-39 37 -47 0 -17 -77 -105 -91 -105 -5 0 3 18 18 41 26 39 26 41 10 67 -49 76
-87 164 -86 199 0 37 1 36 38 -42 22 -47 53 -93 74 -113z m37 158 c0 -5 -4
-10 -10 -10 -5 0 -10 5 -10 10 0 6 5 10 10 10 6 0 10 -4 10 -10z m-620 -9 c0
-5 -11 -12 -24 -15 -13 -3 -32 -8 -43 -11 -10 -3 0 3 22 14 49 24 45 23 45 12z
m650 -12 c0 -6 -4 -7 -10 -4 -5 3 -10 11 -10 16 0 6 5 7 10 4 6 -3 10 -11 10
-16z m152 -12 c-7 -8 -8 -17 -4 -22 4 -4 -3 -1 -15 6 -25 15 -31 32 -9 23 8
-3 17 0 21 6 4 6 9 9 12 6 3 -3 1 -12 -5 -19z m449 -27 c5 0 9 -8 9 -17 -1
-15 -4 -14 -20 5 -12 14 -16 30 -12 40 6 14 7 13 10 -5 2 -13 8 -23 13 -23z
m-1429 0 c-52 -31 -127 -98 -149 -135 -10 -18 -12 -15 -12 22 -1 36 5 50 35
83 39 43 74 58 139 59 l40 1 -53 -30z m608 -14 c0 -11 10 -41 21 -66 l20 -45
-45 45 c-55 53 -65 78 -41 97 23 16 45 1 45 -31z m356 4 c16 0 19 -16 5 -25
-6 -3 -14 3 -20 12 -7 13 -10 14 -11 4 0 -8 -2 -12 -5 -9 -3 3 -2 13 2 24 4
11 8 13 11 6 2 -7 10 -12 18 -12z m611 -15 c2 -5 -10 -9 -27 -9 -44 2 -47 3
-30 14 18 12 52 9 57 -5z m-67 -24 c0 -5 -9 -11 -20 -14 -22 -6 -28 8 -7 16
19 8 27 8 27 -2z m-936 -17 c3 -9 7 -37 8 -62 1 -44 2 -44 5 -9 5 43 23 51 23
9 0 -34 -17 -58 -49 -67 -23 -7 -23 -6 -15 36 5 24 8 59 8 77 -1 34 10 43 20
16z m1002 -4 c14 0 22 -4 19 -10 -3 -6 -18 -7 -33 -4 -21 4 -24 3 -12 -5 8 -6
11 -11 5 -11 -15 0 -30 13 -33 29 -2 9 3 11 13 7 9 -3 28 -6 41 -6z m-766 -20
c0 -5 -4 -10 -9 -10 -6 0 -13 5 -16 10 -3 6 1 10 9 10 9 0 16 -4 16 -10z m30
-20 c0 -5 -7 -10 -16 -10 -8 0 -12 5 -9 10 3 6 10 10 16 10 5 0 9 -4 9 -10z
m50 -10 c0 -5 -7 -10 -15 -10 -8 0 -15 5 -15 10 0 6 7 10 15 10 8 0 15 -4 15
-10z m-250 -44 c-19 -24 -27 -19 -22 15 4 28 6 29 20 15 13 -12 13 -18 2 -30z
m260 9 c-7 -8 -20 -15 -29 -15 -12 0 -10 5 9 20 28 21 39 18 20 -5z m-229 -26
c-21 -17 -51 -26 -51 -15 0 8 65 45 70 40 3 -3 -6 -14 -19 -25z m169 11 c0 -5
-5 -10 -11 -10 -5 0 -7 5 -4 10 3 6 8 10 11 10 2 0 4 -4 4 -10z m-912 -67 c29
-31 30 -73 1 -73 -32 0 -79 53 -79 89 0 29 1 30 28 19 15 -6 37 -22 50 -35z
m882 43 c0 -3 -4 -8 -10 -11 -5 -3 -10 -1 -10 4 0 6 5 11 10 11 6 0 10 -2 10
-4z m140 -37 c-11 -38 -32 -63 -77 -90 -41 -26 -47 -22 -32 19 9 27 88 99 111
101 4 1 3 -13 -2 -30z m-333 4 c0 -10 -5 -24 -11 -32 -5 -7 -12 -25 -14 -39
-3 -22 -1 -24 12 -13 8 7 12 20 9 28 -4 11 -3 14 6 9 7 -4 9 -17 6 -29 -6 -20
-5 -20 14 3 25 30 26 41 5 33 -12 -4 -15 -2 -12 8 3 8 12 13 21 13 9 -1 19 7
22 17 4 11 11 19 16 19 13 0 12 -6 -12 -53 -23 -45 -59 -86 -59 -66 0 8 -4 8
-15 -1 -8 -7 -13 -16 -10 -20 3 -4 -2 -10 -10 -14 -11 -4 -15 2 -15 24 0 37
-13 38 -30 3 -7 -16 -15 -23 -17 -16 -6 18 15 52 53 85 19 17 32 33 29 36 -3
3 -12 -4 -21 -16 -19 -28 -39 -30 -24 -2 6 11 8 20 6 20 -3 0 -15 -18 -26 -40
-17 -34 -45 -60 -64 -60 -3 0 6 25 21 55 27 55 28 56 104 63 9 1 16 -6 16 -15z
m-107 -1 c0 -7 -39 -72 -66 -110 -1 -2 -12 -1 -23 3 -38 12 -26 49 27 84 49
32 62 37 62 23z m-538 -139 c51 -53 57 -111 20 -175 -19 -32 -31 -34 -72 -13
-45 23 -65 69 -51 116 11 37 55 99 70 99 4 0 19 -12 33 -27z m588 -9 c0 -21
-4 -33 -10 -29 -17 10 -11 65 7 65 2 0 3 -16 3 -36z m230 -55 c-17 -57 -96
-136 -116 -116 -15 14 11 65 52 104 54 53 77 57 64 12z"/>
<path d="M2294 3252 c2 -4 -9 -19 -25 -32 -16 -14 -43 -37 -61 -52 l-31 -28
37 0 c22 0 35 4 31 10 -7 12 20 42 29 33 10 -10 7 -25 -3 -18 -5 3 -12 1 -16
-5 -3 -5 1 -10 10 -10 8 0 19 10 24 23 5 13 16 29 25 36 12 10 13 18 5 32 -5
10 -14 19 -20 19 -6 0 -8 -3 -5 -8z"/>
<path d="M2063 3210 c-33 -7 -83 -36 -83 -46 0 -3 16 4 35 16 19 12 35 17 35
11 0 -6 -5 -11 -12 -11 -6 0 -8 -3 -5 -6 4 -4 12 -2 19 4 7 5 31 13 52 17 32
6 37 5 31 -6 -7 -12 -5 -12 6 -1 12 11 12 14 -1 22 -17 11 -32 11 -77 0z"/>
<path d="M2240 3130 c-21 -7 -21 -8 -5 -9 11 0 27 4 35 9 18 11 5 11 -30 0z"/>
<path d="M1936 3063 c5 -5 12 -12 16 -18 4 -6 8 -2 8 8 0 9 -7 17 -17 17 -9 0
-12 -3 -7 -7z"/>
<path d="M1932 3003 c1 -5 -3 -18 -10 -31 -13 -22 -12 -22 7 -10 21 13 29 48
11 48 -5 0 -9 -3 -8 -7z"/>
<path d="M2465 2999 c-4 -6 -5 -12 -2 -15 2 -3 7 2 10 11 7 17 1 20 -8 4z"/>
<path d="M1839 2981 c7 -5 10 -14 7 -20 -4 -6 -2 -11 3 -11 6 0 11 9 11 20 0
12 -7 20 -17 20 -14 0 -15 -2 -4 -9z"/>
<path d="M2560 2923 c0 -10 4 -14 8 -8 4 6 11 13 16 18 5 4 2 7 -7 7 -10 0
-17 -8 -17 -17z"/>
<path d="M2644 2636 c-3 -19 -4 -41 -1 -48 3 -7 6 -2 6 12 2 32 16 54 30 46 6
-4 11 -3 11 2 0 8 -22 22 -35 22 -2 0 -7 -16 -11 -34z"/>
<path d="M1139 3213 c-13 -16 -12 -17 4 -4 16 13 21 21 13 21 -2 0 -10 -8 -17
-17z"/>
<path d="M1583 3188 c2 -7 11 -12 20 -10 9 2 26 -2 38 -8 11 -7 23 -9 26 -6 6
6 -58 36 -78 36 -6 0 -9 -6 -6 -12z"/>
<path d="M1418 3183 c7 -3 16 -2 19 1 4 3 -2 6 -13 5 -11 0 -14 -3 -6 -6z"/>
<path d="M1340 3170 c0 -6 -10 -15 -22 -20 -15 -6 -17 -9 -7 -9 9 -1 24 8 34
19 10 11 13 20 7 20 -7 0 -12 -5 -12 -10z"/>
<path d="M1375 3150 c-9 -14 3 -30 23 -30 16 1 16 2 0 14 -10 7 -15 16 -11 19
3 4 4 7 0 7 -3 0 -9 -4 -12 -10z"/>
<path d="M1280 3080 c0 -5 5 -10 11 -10 5 0 7 5 4 10 -3 6 -8 10 -11 10 -2 0
-4 -4 -4 -10z"/>
<path d="M1223 2971 c2 -28 22 -39 30 -17 4 10 1 13 -8 10 -7 -3 -16 3 -18 13
-4 12 -5 10 -4 -6z"/>
<path d="M1186 2901 c-4 -7 -14 -10 -22 -7 -8 3 -14 1 -14 -5 0 -15 30 -23 42
-11 6 6 8 16 6 23 -4 11 -6 11 -12 0z"/>
<path d="M1257 2847 c-4 -10 -13 -15 -24 -11 -16 5 -16 4 0 -6 21 -14 42 -1
35 21 -3 9 -6 8 -11 -4z"/>
<path d="M1330 2820 c0 -5 5 -10 10 -10 6 0 10 5 10 10 0 6 -4 10 -10 10 -5 0
-10 -4 -10 -10z"/>
<path d="M1680 3021 c0 -5 5 -13 10 -16 6 -3 10 -2 10 4 0 5 -4 13 -10 16 -5
3 -10 2 -10 -4z"/>
<path d="M1406 2971 c-4 -5 3 -7 14 -4 23 6 26 13 6 13 -8 0 -17 -4 -20 -9z"/>
<path d="M2063 2920 c-1 -11 2 -18 8 -15 11 7 12 35 1 35 -4 0 -8 -9 -9 -20z"/>
<path d="M2129 2911 c8 -5 12 -18 8 -30 -3 -12 -2 -21 3 -21 10 0 21 41 14 52
-3 4 -13 8 -22 8 -14 0 -14 -2 -3 -9z"/>
<path d="M2006 2882 c6 -4 14 -14 17 -22 4 -10 6 -8 6 8 1 15 -5 22 -16 22
-11 0 -14 -3 -7 -8z"/>
<path d="M2174 2878 c-5 -8 -2 -9 10 -5 14 6 17 3 12 -9 -7 -17 10 -54 24 -54
6 0 10 7 10 15 0 8 -7 15 -16 15 -13 0 -14 3 -4 15 6 8 9 19 5 25 -8 14 -32
13 -41 -2z"/>
<path d="M2260 2877 c-21 -17 -23 -37 -4 -37 8 0 12 5 8 11 -3 6 0 15 7 20 7
4 11 10 9 13 -3 2 -12 -1 -20 -7z"/>
<path d="M1943 2865 c0 -11 4 -12 14 -4 7 6 13 13 13 15 0 2 -6 4 -13 4 -8 0
-14 -7 -14 -15z"/>
<path d="M2249 2817 c7 -7 14 -8 21 -1 6 6 2 10 -12 11 -16 2 -18 -1 -9 -10z"/>
<path d="M2325 2820 c-4 -6 -14 -9 -22 -6 -8 3 -11 1 -8 -4 3 -6 12 -10 20
-10 15 0 30 18 22 26 -3 3 -8 0 -12 -6z"/>
<path d="M1848 2783 c6 -2 12 -11 12 -19 0 -9 5 -12 10 -9 19 12 10 35 -12 34
-13 0 -17 -3 -10 -6z"/>
<path d="M1793 2743 c9 -2 14 -9 11 -15 -4 -7 -2 -8 4 -4 20 12 13 26 -10 25
-18 -1 -19 -2 -5 -6z"/>
<path d="M1780 2712 c0 -7 -16 -12 -39 -12 -22 0 -43 -5 -46 -10 -4 -7 3 -8
21 -4 23 6 26 4 21 -10 -4 -9 -3 -16 1 -16 12 0 55 50 48 57 -3 3 -6 1 -6 -5z"/>
<path d="M1468 2824 c-66 -34 -60 -39 8 -9 66 29 71 30 54 10 -11 -13 -10 -14
4 -9 19 7 16 28 -5 31 -8 1 -35 -9 -61 -23z"/>
<path d="M1525 2780 c-3 -6 1 -7 9 -4 18 7 21 14 7 14 -6 0 -13 -4 -16 -10z"/>
<path d="M1385 2770 c-3 -6 1 -7 9 -4 18 7 21 14 7 14 -6 0 -13 -4 -16 -10z"/>
<path d="M1466 2753 c-6 -14 -5 -15 5 -6 7 7 10 15 7 18 -3 3 -9 -2 -12 -12z"/>
<path d="M890 2710 c-6 -11 -7 -20 -2 -20 6 0 12 9 15 20 3 11 3 20 1 20 -2 0
-8 -9 -14 -20z"/>
<path d="M1510 2723 c8 -3 18 -10 21 -15 3 -5 11 -3 17 4 8 10 3 13 -21 15
-18 0 -25 -1 -17 -4z"/>
<path d="M1396 2687 c3 -10 9 -15 12 -12 3 3 0 11 -7 18 -10 9 -11 8 -5 -6z"/>
<path d="M1393 2623 c19 -5 23 -28 7 -38 -5 -3 -10 -11 -10 -18 0 -18 29 26
30 46 0 11 -7 17 -22 16 -17 -1 -19 -2 -5 -6z"/>
<path d="M1316 2612 c6 -4 14 -14 17 -22 4 -10 6 -8 6 8 1 15 -5 22 -16 22
-11 0 -14 -3 -7 -8z"/>
<path d="M848 2543 c7 -3 16 -2 19 1 4 3 -2 6 -13 5 -11 0 -14 -3 -6 -6z"/>
<path d="M1315 2540 c-4 -7 2 -9 18 -4 23 5 25 3 20 -18 -4 -18 -3 -20 6 -8 6
8 11 21 11 28 0 15 -46 16 -55 2z"/>
<path d="M1252 2503 c25 -7 30 -31 7 -38 -11 -4 -18 -9 -16 -12 3 -2 14 0 25
6 27 14 18 51 -12 50 -15 -1 -17 -3 -4 -6z"/>
<path d="M830 2490 c-13 -8 -12 -10 3 -10 9 0 17 5 17 10 0 12 -1 12 -20 0z"/>
<path d="M1309 2479 c-6 -13 -7 -19 -1 -15 6 3 12 2 14 -4 2 -6 9 -1 15 10 11
16 10 18 -4 13 -11 -4 -14 -3 -9 5 4 7 5 12 2 12 -3 0 -10 -10 -17 -21z"/>
<path d="M861 2474 c0 -11 3 -14 6 -6 3 7 2 16 -1 19 -3 4 -6 -2 -5 -13z"/>
<path d="M800 2456 c0 -9 5 -16 10 -16 6 0 10 4 10 9 0 6 -4 13 -10 16 -5 3
-10 -1 -10 -9z"/>
<path d="M876 2451 c-19 -7 -19 -8 2 -13 15 -4 22 -2 22 8 0 8 -1 14 -2 13 -2
0 -12 -4 -22 -8z"/>
<path d="M831 2424 c0 -11 3 -14 6 -6 3 7 2 16 -1 19 -3 4 -6 -2 -5 -13z"/>
<path d="M1263 2433 c18 -5 24 -33 7 -33 -5 0 -10 -7 -10 -15 0 -8 -9 -19 -20
-25 -11 -6 -17 -16 -14 -22 5 -7 0 -9 -13 -6 -12 3 -27 2 -34 -3 -11 -7 -10
-9 4 -9 17 0 22 -11 10 -23 -3 -4 -12 -2 -19 4 -11 9 -16 5 -25 -17 -11 -28
-11 -28 -19 -8 -10 26 -60 36 -86 17 -10 -7 -14 -13 -8 -13 5 0 2 -5 -6 -10
-13 -8 -12 -10 4 -10 11 0 16 -3 12 -7 -9 -9 -99 -4 -110 7 -5 5 -1 7 10 4 23
-6 74 11 74 26 0 5 -18 18 -40 29 -21 10 -39 16 -38 12 0 -3 0 -17 -1 -31 -1
-20 -3 -22 -11 -10 -6 10 -10 11 -10 3 0 -7 -4 -13 -10 -13 -5 0 -7 7 -4 15 4
8 1 15 -6 15 -6 0 -8 5 -5 10 3 6 1 10 -4 10 -6 0 -11 7 -11 15 0 17 -35 20
-46 4 -3 -6 -1 -16 5 -22 8 -8 11 -6 11 6 0 9 5 17 10 17 16 0 12 -28 -6 -38
-23 -13 -10 -45 24 -63 15 -8 33 -20 41 -28 21 -20 124 -10 151 14 l21 19 -23
18 c-19 14 -20 18 -6 18 9 0 20 -5 23 -10 4 -6 11 -8 16 -5 5 3 6 -1 3 -9 -5
-12 1 -16 22 -16 21 0 43 15 89 63 33 34 70 76 82 93 l22 30 -37 1 c-20 1 -29
-1 -19 -4z m-270 -138 c1 -5 -8 -11 -20 -13 -15 -2 -23 2 -23 11 0 16 39 18
43 2z m27 -65 c0 -5 -10 -10 -22 -10 -19 0 -20 2 -8 10 19 13 30 13 30 0z"/>
<path d="M900 2410 c-6 -11 -21 -20 -33 -20 -12 0 -29 -5 -37 -10 -11 -7 -5
-8 20 -4 53 9 57 11 63 33 7 27 1 27 -13 1z"/>
<path d="M801 2378 c0 -26 3 -49 7 -52 4 -2 6 12 4 32 -6 62 -10 69 -11 20z"/>
<path d="M1080 2406 c0 -2 8 -10 18 -17 15 -13 16 -12 3 4 -13 16 -21 21 -21
13z"/>
<path d="M1188 2393 c16 -3 22 -10 18 -19 -3 -9 -1 -12 4 -9 21 13 10 35 -17
34 -25 -2 -26 -2 -5 -6z"/>
<path d="M1009 2377 c23 -14 23 -15 5 -26 -18 -11 -18 -12 1 -9 30 5 26 42 -5
46 l-25 2 24 -13z"/>
<path d="M919 2366 c7 -9 20 -16 27 -16 8 0 14 -4 14 -8 0 -5 7 -9 15 -9 23 0
19 5 -27 28 -33 17 -40 18 -29 5z"/>
<path d="M900 2353 c0 -15 19 -37 26 -31 3 4 -1 14 -10 23 -9 9 -16 13 -16 8z"/>
<path d="M1054 2345 c2 -8 0 -16 -7 -18 -7 -2 -9 -8 -5 -12 4 -4 14 -2 22 4
10 8 16 9 21 1 3 -5 11 -10 17 -10 7 0 7 4 -1 13 -6 8 -8 17 -4 20 11 12 23 8
23 -8 0 -8 5 -15 11 -15 6 0 9 8 7 18 -2 13 -14 17 -46 19 -34 1 -42 -1 -38
-12z"/>
<path d="M2050 2680 c0 -5 8 -10 18 -10 9 0 23 -9 30 -20 12 -20 32 -19 32 1
0 6 -4 8 -9 4 -5 -3 -16 3 -23 12 -15 20 -48 29 -48 13z"/>
<path d="M2200 2528 c0 -4 9 -8 20 -8 11 0 20 4 20 8 0 4 -9 8 -20 8 -11 0
-20 -4 -20 -8z"/>
<path d="M2333 2310 c0 -20 3 -26 9 -18 6 10 8 10 8 1 0 -16 26 -17 36 -1 4 6
3 8 -3 5 -14 -9 -37 19 -28 33 3 5 0 10 -8 10 -9 0 -14 -11 -14 -30z"/>
<path d="M2321 2654 c0 -11 3 -14 6 -6 3 7 2 16 -1 19 -3 4 -6 -2 -5 -13z"/>
<path d="M2565 2370 c-19 -8 -19 -9 3 -9 12 -1 22 4 22 9 0 6 -1 10 -2 9 -2 0
-12 -4 -23 -9z"/>
<path d="M2658 2288 c5 -5 16 -8 23 -6 8 3 3 7 -10 11 -17 4 -21 3 -13 -5z"/>
<path d="M2754 2095 c-3 -8 -4 -20 -2 -27 3 -7 7 -1 10 15 6 29 1 36 -8 12z"/>
<path d="M2760 2025 c0 -8 -7 -15 -15 -15 -9 0 -15 -9 -14 -22 1 -17 2 -19 6
-5 2 9 11 17 19 17 8 0 14 9 14 20 0 11 -2 20 -5 20 -3 0 -5 -7 -5 -15z"/>
<path d="M2700 1945 c-8 -9 -8 -15 -2 -15 12 0 26 19 19 26 -2 2 -10 -2 -17
-11z"/>
<path d="M2730 1928 c0 -20 25 -24 36 -6 5 7 3 8 -6 3 -7 -4 -16 -2 -21 6 -7
11 -9 10 -9 -3z"/>
<path d="M1840 2501 c0 -8 -8 -11 -20 -8 -11 3 -18 1 -14 -4 3 -5 11 -9 19 -9
16 0 30 18 21 27 -3 4 -6 1 -6 -6z"/>
<path d="M1870 2501 c0 -18 30 -25 43 -11 9 10 9 11 -1 6 -7 -4 -19 -2 -27 4
-11 9 -15 9 -15 1z"/>
<path d="M1647 2463 c-21 -26 -16 -31 8 -7 15 15 18 15 38 -2 14 -12 17 -13 9
-3 -6 9 -9 18 -7 21 3 3 -2 8 -12 10 -12 3 -25 -4 -36 -19z"/>
<path d="M1768 2458 c5 -5 16 -8 23 -6 8 3 3 7 -10 11 -17 4 -21 3 -13 -5z"/>
<path d="M1648 2405 c-2 -12 -10 -19 -21 -19 -17 2 -17 1 -1 -17 20 -23 25
-24 18 -5 -3 8 8 24 25 37 30 24 30 24 6 24 -17 0 -25 -6 -27 -20z"/>
<path d="M1725 2409 c7 -11 35 -12 35 -1 0 4 -9 8 -20 9 -11 1 -18 -2 -15 -8z"/>
<path d="M1787 2408 c2 -5 13 -8 24 -8 10 0 19 3 19 8 0 4 -11 7 -24 7 -13 0
-22 -3 -19 -7z"/>
<path d="M1680 2373 c0 -6 9 -9 20 -6 30 8 32 18 4 18 -13 0 -24 -5 -24 -12z"/>
<path d="M1687 2318 c2 -5 10 -8 18 -8 8 0 16 3 18 8 3 4 -5 7 -18 7 -13 0
-21 -3 -18 -7z"/>
<path d="M1853 2283 c-48 -25 -56 -39 -59 -107 -4 -72 6 -88 38 -59 21 18 21
18 15 -8 -6 -24 -4 -27 23 -31 16 -3 31 0 33 5 5 17 45 -11 72 -51 14 -20 25
-32 25 -27 0 6 -9 21 -20 35 -25 32 -25 39 0 33 24 -6 63 -54 84 -103 11 -26
15 -30 16 -14 0 12 -11 38 -25 59 -15 20 -24 39 -22 41 9 9 50 -49 72 -102 14
-34 25 -50 25 -37 0 12 -16 52 -35 90 l-35 68 36 -40 36 -40 -23 40 c-13 22
-28 43 -33 47 -6 4 9 8 34 9 25 1 36 3 25 6 -35 9 -40 22 -12 32 36 14 34 18
-7 13 -45 -5 -54 13 -16 33 38 20 38 33 -3 80 -28 32 -40 38 -83 42 -30 3 -54
1 -58 -5 -3 -6 -19 -7 -40 -2 -24 5 -44 3 -63 -7z m243 -44 c42 -39 27 -59
-44 -59 l-37 1 28 20 c15 11 27 25 27 31 0 5 -12 0 -26 -11 -28 -22 -54 -28
-54 -12 0 6 5 13 10 16 6 3 10 12 10 18 0 7 -9 1 -18 -11 -12 -15 -26 -23 -39
-20 -12 1 -32 -7 -45 -19 -22 -21 -26 -21 -62 -9 l-39 13 34 7 c19 3 61 20 94
37 70 35 122 35 161 -2z m-84 -89 c16 -16 35 -30 41 -30 7 0 6 -4 -3 -10 -20
-13 -167 -13 -175 0 -9 15 13 50 38 60 40 16 68 10 99 -20z"/>
<path d="M1298 2229 c-26 -28 -48 -56 -48 -62 0 -5 18 11 41 37 48 54 72 58
165 25 127 -44 122 -43 139 -29 16 14 20 36 7 44 -19 11 -160 36 -206 36 -47
0 -53 -3 -98 -51z"/>
<path d="M1384 2192 c23 -26 15 -28 -19 -6 -31 20 -32 12 -3 -16 l22 -20 -23
0 c-12 0 -36 7 -54 16 -34 17 -30 11 17 -25 l30 -22 -60 5 c-57 4 -58 4 -31
-10 25 -14 26 -16 12 -31 -9 -8 -25 -13 -35 -10 -11 3 -18 1 -14 -4 3 -5 11
-9 18 -9 7 0 20 -6 30 -13 17 -13 17 -15 2 -45 -20 -39 -21 -57 0 -20 8 15 24
33 36 39 19 10 20 9 13 -7 -27 -63 -44 -124 -44 -154 1 -36 3 -32 20 58 7 35
21 65 41 88 17 19 32 33 35 31 2 -2 -6 -24 -17 -48 -11 -24 -20 -55 -19 -69 0
-17 6 -7 18 29 21 61 51 105 75 109 14 3 13 -2 -5 -35 -12 -22 -14 -30 -5 -18
44 53 57 65 67 60 5 -4 16 -1 24 5 8 7 26 9 40 6 27 -7 32 2 13 23 -11 11 -9
13 10 8 20 -5 22 -1 22 32 0 35 -2 38 -27 37 -16 -1 -37 4 -48 11 -11 7 -26
13 -35 12 -10 0 -9 -3 5 -9 15 -6 7 -9 -30 -9 -32 -1 -60 5 -75 16 l-25 17 19
-22z m136 -57 c5 -3 10 -15 10 -25 0 -14 -10 -20 -40 -24 -22 -3 -58 -9 -79
-12 -46 -6 -56 4 -34 35 30 44 95 56 143 26z"/>
<path d="M1789 2072 c5 -9 12 -25 15 -34 7 -25 23 -22 37 5 11 20 11 21 -4 9
-13 -11 -16 -10 -22 7 -3 10 -12 22 -20 25 -11 4 -13 1 -6 -12z"/>
<path d="M1606 2055 c-3 -9 -6 -22 -5 -28 0 -7 5 -1 10 12 5 13 8 26 5 28 -2
2 -6 -3 -10 -12z"/>
<path d="M1615 2011 c-3 -6 -11 -9 -16 -6 -5 4 -9 1 -9 -4 0 -13 10 -14 30 -1
8 5 12 12 8 15 -3 4 -9 1 -13 -4z"/>
<path d="M1648 1933 c7 -3 16 -2 19 1 4 3 -2 6 -13 5 -11 0 -14 -3 -6 -6z"/>
<path d="M1692 1921 c-45 -8 -67 -22 -60 -41 2 -7 14 -3 32 11 l29 23 -5 -27
c-5 -24 -2 -27 23 -27 16 0 29 5 29 10 0 6 -4 10 -10 10 -6 0 -6 9 0 25 5 14
8 24 7 24 -1 -1 -21 -5 -45 -8z"/>
<path d="M1790 1926 c0 -2 8 -10 18 -17 15 -13 16 -12 3 4 -13 16 -21 21 -21
13z"/>
<path d="M1750 1911 c0 -12 29 -35 36 -28 11 10 -5 37 -21 37 -8 0 -15 -4 -15
-9z"/>
<path d="M1581 1879 c-1 -30 4 -38 26 -48 20 -9 29 -9 37 0 8 9 8 10 -1 5 -16
-9 -36 30 -29 58 5 20 4 20 -9 3 -13 -18 -13 -18 -18 0 -3 10 -5 2 -6 -18z"/>
<path d="M1800 1874 c0 -8 -5 -14 -12 -14 -9 0 -9 -3 -1 -11 8 -8 17 -8 32 0
27 15 27 36 1 38 -11 1 -20 -4 -20 -13z"/>
<path d="M1195 1820 c3 -5 8 -10 11 -10 2 0 4 5 4 10 0 6 -5 10 -11 10 -5 0
-7 -4 -4 -10z"/>
<path d="M1652 1779 c-40 -15 -129 -127 -119 -152 5 -14 110 -47 154 -48 l28
0 -25 -10 c-14 -6 -32 -8 -42 -6 -17 5 -34 -18 -19 -27 4 -3 29 1 56 9 26 8
72 15 101 15 29 0 55 3 57 8 3 4 -23 6 -56 5 -61 -2 -61 -2 -16 7 46 8 143 52
153 69 7 10 -60 94 -94 118 -24 17 -143 25 -178 12z m195 -41 c28 -28 28 -43
-1 -32 -9 3 -16 12 -16 20 0 17 -2 17 -47 -1 -45 -19 -46 -19 -39 3 5 16 2 18
-26 15 -18 -2 -42 -4 -52 -5 -11 -1 -31 -13 -44 -25 -42 -39 -53 -25 -14 17
l37 41 87 -3 c80 -3 90 -5 115 -30z m-29 -65 c20 -9 41 -15 46 -14 5 1 16 -1
24 -4 13 -5 12 -8 -6 -21 -14 -10 -48 -15 -104 -15 -115 -2 -111 -3 -106 26 3
14 1 25 -3 25 -5 0 -9 -9 -9 -21 0 -16 -4 -19 -20 -14 -12 4 -20 2 -20 -5 0
-7 -8 -10 -20 -7 -11 3 -20 1 -20 -5 0 -5 -4 -6 -10 -3 -43 26 60 69 178 74
18 0 49 -6 70 -16z"/>
<path d="M1700 1645 c0 -14 2 -25 4 -25 2 0 6 11 8 25 3 14 1 25 -3 25 -5 0
-9 -11 -9 -25z"/>
<path d="M1736 1655 c4 -8 8 -15 10 -15 2 0 4 7 4 15 0 8 -4 15 -10 15 -5 0
-7 -7 -4 -15z"/>
<path d="M1780 1663 c14 -2 31 -12 38 -21 13 -16 14 -15 10 3 -2 15 -12 20
-38 22 -23 1 -26 -1 -10 -4z"/>
<path d="M1320 1650 c0 -5 7 -10 15 -10 8 0 15 5 15 10 0 6 -7 10 -15 10 -8 0
-15 -4 -15 -10z"/>
<path d="M1300 1570 c-9 -6 -10 -10 -3 -10 6 0 15 5 18 10 8 12 4 12 -15 0z"/>
<path d="M1530 1484 c0 -6 7 -19 16 -30 14 -18 14 -18 3 6 -14 31 -19 36 -19
24z"/>
<path d="M1336 1440 c18 -18 25 -20 40 -11 18 10 18 11 2 12 -27 2 -32 4 -48
13 -8 5 -5 -1 6 -14z"/>
<path d="M1421 1426 c12 -10 79 -16 79 -6 0 5 -19 10 -42 10 -23 0 -39 -2 -37
-4z"/>
<path d="M2531 2174 c0 -11 3 -14 6 -6 3 7 2 16 -1 19 -3 4 -6 -2 -5 -13z"/>
<path d="M2592 2158 c2 -5 8 -9 13 -9 5 0 11 4 13 9 1 5 -4 9 -13 9 -9 0 -14
-4 -13 -9z"/>
<path d="M2490 2149 c0 -20 16 -43 23 -32 3 4 -1 17 -9 28 -10 13 -14 15 -14
4z"/>
<path d="M2536 2095 c-3 -9 0 -15 9 -15 9 0 12 6 9 15 -4 8 -7 15 -9 15 -2 0
-5 -7 -9 -15z"/>
<path d="M2556 2061 c-3 -5 -2 -20 3 -33 l10 -23 1 25 c1 23 2 23 10 5 7 -15
9 -16 9 -4 1 20 -25 44 -33 30z"/>
<path d="M2622 1955 c-31 -26 -48 -33 -37 -15 3 6 1 10 -4 10 -6 0 -11 -6 -11
-14 0 -8 -8 -13 -17 -11 -10 1 -12 0 -5 -2 14 -5 16 -23 2 -23 -5 0 -15 -10
-21 -22 -9 -16 0 -12 32 15 24 20 58 48 74 61 17 14 27 26 23 26 -3 0 -20 -11
-36 -25z"/>
<path d="M2365 1830 c-3 -5 -2 -10 4 -10 5 0 13 5 16 10 3 6 2 10 -4 10 -5 0
-13 -4 -16 -10z"/>
<path d="M2100 1349 c-12 -9 -11 -10 8 -6 17 4 22 1 23 -16 0 -21 1 -21 8 -2
14 34 -7 47 -39 24z"/>
<path d="M2050 1265 c-9 -11 -9 -15 -1 -15 7 0 9 -5 5 -12 -5 -7 -2 -9 9 -5 9
3 18 1 21 -6 2 -7 5 -4 5 6 1 9 -6 17 -14 17 -18 0 -20 16 -2 23 7 4 8 6 1 6
-6 1 -17 -6 -24 -14z"/>
<path d="M2010 1196 c0 -8 -7 -16 -15 -20 -8 -3 -15 -10 -15 -15 0 -6 7 -8 15
-5 8 4 15 2 15 -4 0 -6 -6 -13 -12 -15 -7 -3 -3 -6 9 -6 19 -1 22 4 20 39 -1
22 -5 40 -9 40 -4 0 -8 -6 -8 -14z"/>
<path d="M2460 1025 c-8 -9 -8 -15 -2 -15 12 0 26 19 19 26 -2 2 -10 -2 -17
-11z"/>
<path d="M2427 973 c-4 -3 -7 -15 -7 -26 0 -17 -2 -18 -16 -6 -13 11 -17 10
-25 -4 -6 -9 -17 -17 -24 -17 -8 0 -15 -6 -15 -14 0 -8 -7 -16 -15 -20 -16 -6
-9 -36 9 -36 12 0 98 86 94 94 -2 3 6 12 17 20 16 12 17 15 4 16 -9 0 -19 -3
-22 -7z"/>
<path d="M2290 860 c0 -5 5 -10 10 -10 6 0 10 5 10 10 0 6 -4 10 -10 10 -5 0
-10 -4 -10 -10z"/>
<path d="M915 2140 c-7 -12 2 -12 30 0 19 8 19 9 -2 9 -12 1 -25 -3 -28 -9z"/>
<path d="M2774 1839 c-3 -6 -1 -16 6 -22 10 -9 11 -9 5 2 -4 8 -2 17 6 22 9 6
10 9 2 9 -6 0 -15 -5 -19 -11z"/>
<path d="M2417 1702 c1 -8 3 -16 3 -18 0 -3 5 -2 10 1 6 3 10 11 10 16 0 6 -4
8 -9 5 -5 -4 -11 -3 -14 1 -2 5 -2 2 0 -5z"/>
<path d="M2681 1544 c0 -11 3 -14 6 -6 3 7 2 16 -1 19 -3 4 -6 -2 -5 -13z"/>
<path d="M2591 1620 c-1 -18 16 -46 23 -40 2 3 -2 16 -9 30 -8 15 -14 19 -14
10z"/>
<path d="M845 1630 c-4 -7 3 -8 22 -4 38 9 42 14 10 14 -14 0 -29 -5 -32 -10z"/>
<path d="M725 1540 c21 -24 32 -25 32 -6 0 8 -6 12 -14 9 -7 -3 -13 0 -13 6 0
6 -5 11 -12 11 -6 0 -3 -9 7 -20z"/>
<path d="M835 1401 c4 -13 2 -21 -5 -21 -6 0 -8 -4 -5 -10 3 -5 10 -10 16 -10
13 0 11 47 -2 56 -8 4 -9 0 -4 -15z"/>
<path d="M918 1363 c7 -3 16 -2 19 1 4 3 -2 6 -13 5 -11 0 -14 -3 -6 -6z"/>
<path d="M1160 1350 c-25 -4 -38 -8 -30 -10 24 -4 72 1 94 10 20 8 20 9 1 8
-11 -1 -40 -4 -65 -8z"/>
<path d="M1000 1335 c7 -9 15 -13 17 -11 7 7 -7 26 -19 26 -6 0 -6 -6 2 -15z"/>
<path d="M1671 1084 c0 -11 3 -14 6 -6 3 7 2 16 -1 19 -3 4 -6 -2 -5 -13z"/>
<path d="M2296 1324 c-8 -20 -4 -25 11 -16 7 4 9 13 4 21 -6 10 -10 9 -15 -5z"/>
<path d="M2345 1270 c3 -5 8 -10 11 -10 2 0 4 5 4 10 0 6 -5 10 -11 10 -5 0
-7 -4 -4 -10z"/>
<path d="M1192 1199 c2 -7 10 -15 17 -17 8 -3 12 1 9 9 -2 7 -10 15 -17 17 -8
3 -12 -1 -9 -9z"/>
<path d="M2380 1200 c-8 -5 -23 -11 -32 -14 -9 -3 -21 -14 -27 -24 -9 -17 -8
-19 8 -15 10 2 34 -2 54 -11 27 -11 37 -12 37 -3 0 7 3 22 6 34 7 25 -22 45
-46 33z"/>
<path d="M1116 1055 c-3 -8 -1 -15 4 -15 6 0 10 7 10 15 0 8 -2 15 -4 15 -2 0
-6 -7 -10 -15z"/>
<path d="M1185 908 c4 -13 11 -27 16 -33 5 -5 4 5 -2 23 -12 36 -24 44 -14 10z"/>
<path d="M1960 3818 c0 -2 11 -19 25 -38 14 -19 26 -43 26 -54 1 -16 2 -17 6
-4 5 19 -18 68 -41 87 -9 8 -16 12 -16 9z"/>
<path d="M2578 3795 c-15 -12 -60 -41 -100 -63 -228 -127 -252 -308 -54 -403
42 -20 37 -16 -40 34 -55 36 -84 83 -83 133 l1 39 9 -44 c13 -66 46 -101 148
-154 135 -71 168 -104 180 -175 6 -30 8 -32 25 -19 50 37 -35 140 -169 202
-94 44 -126 71 -144 118 -17 43 -13 77 13 132 27 58 62 91 145 135 56 30 109
75 100 84 -2 2 -16 -6 -31 -19z"/>
<path d="M1790 3704 c-7 -19 -9 -38 -6 -41 3 -4 6 0 6 8 0 8 7 26 14 42 8 15
11 27 6 27 -5 0 -14 -16 -20 -36z"/>
<path d="M1820 3597 c14 -15 41 -29 60 -32 l35 -5 -30 11 c-16 7 -43 21 -60
32 l-30 20 25 -26z"/>
<path d="M2883 3545 c0 -22 2 -30 4 -17 2 12 2 30 0 40 -3 9 -5 -1 -4 -23z"/>
<path d="M882 3414 c25 -26 35 -29 100 -30 l73 -2 -68 7 c-45 5 -78 15 -100
31 l-32 23 27 -29z"/>
<path d="M1078 3393 c7 -3 16 -2 19 1 4 3 -2 6 -13 5 -11 0 -14 -3 -6 -6z"/>
<path d="M611 3204 c0 -11 3 -14 6 -6 3 7 2 16 -1 19 -3 4 -6 -2 -5 -13z"/>
<path d="M427 2910 c3 -25 7 -47 9 -49 8 -9 2 55 -6 74 -6 13 -7 5 -3 -25z"/>
<path d="M677 2241 c-21 -10 -44 -24 -50 -31 -10 -10 -8 -10 10 -1 12 6 29 8
38 5 9 -4 15 -2 13 4 -2 6 6 18 17 26 25 20 19 19 -28 -3z"/>
<path d="M712 2221 c-11 -6 -10 -10 0 -19 11 -8 14 -7 14 9 0 10 0 19 -1 19 0
0 -6 -4 -13 -9z"/>
<path d="M628 2183 c6 -2 18 -2 25 0 6 3 1 5 -13 5 -14 0 -19 -2 -12 -5z"/>
<path d="M578 2173 c6 -2 18 -2 25 0 6 3 1 5 -13 5 -14 0 -19 -2 -12 -5z"/>
<path d="M550 2130 c0 -6 7 -10 15 -10 8 0 15 2 15 4 0 2 -7 6 -15 10 -8 3
-15 1 -15 -4z"/>
<path d="M507 2093 c-14 -13 -7 -25 8 -13 8 6 19 9 25 5 5 -3 10 -1 10 4 0 12
-33 15 -43 4z"/>
<path d="M489 2058 c-6 -23 -7 -48 -1 -52 4 -2 8 9 9 25 1 16 0 29 -2 29 -3 0
-5 -1 -6 -2z"/>
<path d="M529 1998 c-11 -22 -11 -22 7 -7 10 9 25 14 33 11 8 -3 11 0 7 7 -12
18 -34 13 -47 -11z"/>
<path d="M450 1961 c0 -11 -5 -23 -11 -26 -13 -9 -3 -76 20 -130 22 -49 96
-119 118 -111 11 4 13 2 9 -9 -3 -10 1 -15 13 -15 11 0 28 -3 38 -7 16 -6 17
-5 3 12 -14 17 -13 18 5 11 25 -11 77 -8 88 3 13 13 0 31 -21 31 -13 0 -14 2
-3 9 9 6 10 11 2 15 -18 11 -13 26 12 36 22 9 22 9 1 9 -30 1 -47 -21 -31 -39
10 -10 9 -12 -6 -6 -10 3 -23 6 -29 6 -6 0 -8 7 -5 14 4 10 1 13 -9 9 -8 -3
-20 -1 -27 5 -6 5 -30 12 -52 15 -22 3 -53 10 -70 14 -28 9 -28 10 -7 15 15 4
22 14 22 30 -1 20 -2 21 -11 6 -5 -10 -19 -18 -29 -18 -17 0 -20 7 -19 43 1
23 6 51 12 61 10 19 10 19 24 0 14 -18 14 -18 11 6 -4 32 -48 43 -48 11z m136
-238 c3 3 1 14 -5 26 -13 23 -2 34 19 20 9 -5 10 -9 3 -9 -8 0 -8 -6 0 -24 14
-28 28 -25 20 4 -3 11 0 20 6 20 6 0 11 -9 11 -20 0 -11 5 -20 10 -20 6 0 10
-4 10 -8 0 -9 -47 -9 -56 1 -3 3 -12 3 -18 1 -14 -5 -46 36 -46 58 0 7 9 -2
21 -21 11 -18 22 -31 25 -28z m110 -7 c18 -19 18 -21 -4 -23 -11 -1 -18 5 -18
18 0 23 3 23 22 5z"/>
<path d="M468 1913 c-6 -42 -1 -63 14 -63 6 0 8 7 4 15 -3 8 -2 15 3 15 12 0
10 33 -4 53 -11 16 -13 14 -17 -20z"/>
<path d="M523 1942 c-9 -6 -10 -16 -3 -37 10 -30 10 -30 6 -2 -2 15 0 27 3 27
9 0 31 -60 32 -86 0 -14 3 -12 10 8 6 15 16 29 22 31 7 2 2 2 -10 0 -18 -3
-23 2 -24 19 -1 13 -1 27 0 31 1 5 -3 6 -8 3 -5 -4 -11 -2 -13 4 -1 5 -8 6
-15 2z"/>
<path d="M520 1841 c0 -11 5 -23 10 -26 6 -3 10 3 10 14 0 11 -4 23 -10 26 -5
3 -10 -3 -10 -14z"/>
<path d="M575 1821 c-3 -5 -1 -12 5 -16 5 -3 10 1 10 9 0 18 -6 21 -15 7z"/>
<path d="M610 1805 c7 -8 17 -15 22 -15 5 0 3 7 -6 15 -8 8 -18 15 -22 15 -3
0 -1 -7 6 -15z"/>
<path d="M854 1775 c-7 -17 3 -35 19 -35 8 0 7 4 -2 9 -12 8 -12 12 -2 25 10
11 10 16 2 16 -6 0 -14 -7 -17 -15z"/>
<path d="M778 1773 c7 -3 16 -2 19 1 4 3 -2 6 -13 5 -11 0 -14 -3 -6 -6z"/>
<path d="M980 1769 c0 -5 5 -7 10 -4 6 3 10 8 10 11 0 2 -4 4 -10 4 -5 0 -10
-5 -10 -11z"/>
<path d="M1060 1770 c0 -5 7 -7 15 -4 8 4 15 8 15 10 0 2 -7 4 -15 4 -8 0 -15
-4 -15 -10z"/>
<path d="M778 1719 c-30 -17 -22 -39 15 -38 23 1 26 3 10 6 -26 5 -29 13 -11
31 15 15 9 15 -14 1z"/>
</g>
</svg>
